<?xml version="1.0" standalone="no"?><!DOCTYPE svg PUBLIC "-//W3C//DTD SVG 1.1//EN" "http://www.w3.org/Graphics/SVG/1.1/DTD/svg11.dtd"><svg t="1736131362868" class="icon" viewBox="0 0 1024 1024" version="1.1" xmlns="http://www.w3.org/2000/svg" p-id="4299" xmlns:xlink="http://www.w3.org/1999/xlink" width="200" height="200"><path d="M456.17 941.26l-89.72 72.31a39.886 39.886 0 0 1-25.08 8.85c-11.68 0-23.26-5.09-31.17-14.9-13.86-17.2-11.15-42.38 6.05-56.25l17.22-13.87c-77.28-14.45-147.01-38.25-201.88-69.35-39.72-22.52-71.11-48.37-93.28-76.84C13.12 758.87 0.35 724.12 0.35 687.92c0-75.7 55.95-144.5 157.65-193.99v18.99c0 14.73 3.9 29.26 11.26 42.02a83.325 83.325 0 0 0 12.56 16.57C117.11 605.45 80.35 647.4 80.35 687.92c0 38.12 32.21 77.38 90.69 110.53 48.18 27.31 110.5 48.23 180.33 60.94L332.6 829.9c-11.86-18.64-6.36-43.36 12.27-55.23 18.64-11.86 43.36-6.36 55.23 12.27l64.72 101.7c10.93 17.19 7.21 39.84-8.65 52.62z" fill="#2261af" p-id="4300"></path><path d="M181.92 571.45c-0.03 0.02-0.07 0.04-0.1 0.06a83.325 83.325 0 0 1-12.56-16.57A84.224 84.224 0 0 1 158 512.92v-18.99c0.03-0.03 0.07-0.04 0.1-0.05v19.04c0 22.08 8.78 43.05 23.82 58.53zM776.06 133.02L575.7 17.35c-38.24-22.08-85.76-22.08-124 0L251.35 133.02c-38.24 22.08-62 63.23-62 107.38v231.36c0 2.68 0.09 5.35 0.27 8.01 1.79 27.54 12.79 53.5 30.67 73.87a123.356 123.356 0 0 0 31.06 25.5L451.7 694.81c19.12 11.04 40.56 16.56 62 16.56 21.44 0 42.88-5.52 62-16.56l200.36-115.67a123.385 123.385 0 0 0 30.05-24.37c18.15-20.17 29.44-46.01 31.57-73.5 0.25-3.15 0.37-6.32 0.37-9.51V240.4c0-44.15-23.75-85.3-61.99-107.38zM491.7 86.63a43.975 43.975 0 0 1 22-5.88c7.61 0 15.21 1.96 22 5.88l184.91 106.75-183.5 103.22c-14.85 8.35-33.16 8.09-47.76-0.7L313 189.8 491.7 86.63zM315.42 523.76l-24.07-13.9c-13.57-7.84-22-22.44-22-38.1V256.89L448.1 364.45c7.44 4.48 15.23 8.13 23.25 10.95v238.38l-155.93-90.02z m442.63-52c0 15.66-8.43 30.26-21.99 38.1l-25.15 14.52-159.56 92.12V377.04c8.6-2.64 16.97-6.22 24.98-10.72L758.05 264.1v207.66zM1023.35 687.92c0 71.64-50.91 137.96-143.34 186.74-83.17 43.9-195.56 71.41-316.46 77.47-0.68 0.04-1.36 0.05-2.03 0.05-21.17 0-38.85-16.61-39.92-38-1.1-22.06 15.89-40.84 37.95-41.95 109.5-5.48 210.04-29.75 283.12-68.32 33.27-17.56 59.98-37.92 77.22-58.88 15.57-18.92 23.46-38.14 23.46-57.11 0-40.01-35.84-81.41-99.03-115.13a0.3 0.3 0 0 1-0.11-0.06c15.81-15.57 25.09-37.1 25.09-59.81V495.7c0.03 0 0.07 0.02 0.1 0.05 99.36 49.35 153.95 117.39 153.95 192.17z" fill="#2261af" p-id="4301"></path><path d="M158.1 512.92v-19.04c-0.03 0.01-0.07 0.02-0.1 0.05v18.99c0 14.73 3.9 29.26 11.26 42.02a83.325 83.325 0 0 0 12.56 16.57c0.03-0.02 0.07-0.04 0.1-0.06-15.04-15.48-23.82-36.45-23.82-58.53z m711.2-17.22v17.22c0 22.71-9.28 44.24-25.09 59.81a0.3 0.3 0 0 0 0.11 0.06 83.443 83.443 0 0 0 13.82-17.85 84.12 84.12 0 0 0 11.26-42.02v-17.17c-0.03-0.03-0.07-0.05-0.1-0.05z" fill="#2261af" p-id="4302"></path></svg>