<svg width="2560" height="950" viewBox="0 0 2560 950" fill="none" xmlns="http://www.w3.org/2000/svg">
<rect width="2560" height="950" fill="white"/>
<path d="M40.7661 909.234H2519.23V40.7659H40.7661V909.234Z" stroke="#76B900" stroke-width="2"/>
<path d="M970.225 182.131C961.649 182.131 955.136 179.724 950.684 174.911C946.23 170.098 944.004 163.156 944.004 154.084V150.351C944.004 144.487 945.011 139.439 947.032 135.206C949.05 130.977 951.927 127.714 955.663 125.418C959.396 123.122 963.807 121.974 968.899 121.974H969.893C975.15 121.974 979.602 123.122 983.254 125.418C986.906 127.714 989.532 131.047 991.139 135.414L984.832 137.572C982.616 131.266 977.638 128.113 969.893 128.113H968.899C963.199 128.113 958.775 130.05 955.62 133.921C952.467 137.794 950.89 143.244 950.89 150.267V154.332C950.89 168.826 957.335 176.072 970.225 176.072H971.222C976.976 176.072 981.706 174.968 985.412 172.753V156.739H970.641L971.471 150.932H992.049V175.908C989.616 177.788 986.641 179.295 983.13 180.429C979.615 181.561 975.674 182.131 971.303 182.131H970.225Z" fill="black"/>
<path d="M1021.01 182.131C1015.2 182.131 1010.61 180.332 1007.24 176.737C1003.86 173.142 1002.17 168.08 1002.17 161.552V158.481C1002.17 154.224 1002.95 150.559 1004.5 147.488C1006.04 144.417 1008.25 142.053 1011.1 140.392C1013.94 138.734 1017.25 137.905 1021.01 137.905H1021.67C1025.38 137.905 1028.58 138.68 1031.26 140.227C1033.94 141.778 1036.03 143.976 1037.53 146.823C1039.02 149.673 1039.77 153.006 1039.77 156.822V161.884H1008.73C1008.78 166.808 1009.91 170.487 1012.09 172.92C1014.28 175.354 1017.25 176.569 1021.01 176.569H1022.26C1025.02 176.569 1027.28 176.072 1029.02 175.076C1030.76 174.082 1032.16 172.642 1033.21 170.762L1038.27 173.833C1036.83 176.378 1034.75 178.395 1032.01 179.889C1029.27 181.383 1026.02 182.131 1022.26 182.131H1021.01ZM1008.81 156.822H1033.21V155.909C1033.21 151.817 1032.17 148.719 1030.1 146.615C1028.02 144.514 1025.22 143.463 1021.67 143.463H1021.01C1017.58 143.463 1014.75 144.598 1012.51 146.866C1010.26 149.135 1009.03 152.452 1008.81 156.822Z" fill="black"/>
<path d="M1050.3 181.134V138.901H1056.36V146.45C1057.52 143.906 1059.29 141.845 1061.67 140.268C1064.05 138.693 1067.01 137.905 1070.55 137.905H1071.3C1076.11 137.905 1079.97 139.371 1082.88 142.302C1085.78 145.235 1087.23 149.522 1087.23 155.164V181.134H1080.59V156.242C1080.59 152.093 1079.68 148.954 1077.85 146.823C1076.03 144.695 1073.4 143.631 1069.97 143.631H1069.39C1067.18 143.631 1065.13 144.168 1063.25 145.249C1061.37 146.326 1059.85 147.931 1058.69 150.059C1057.52 152.19 1056.94 154.859 1056.94 158.067V181.134H1050.3Z" fill="black"/>
<path d="M1116.44 182.131C1110.63 182.131 1106.04 180.332 1102.67 176.737C1099.29 173.142 1097.6 168.08 1097.6 161.552V158.481C1097.6 154.224 1098.38 150.559 1099.93 147.488C1101.47 144.417 1103.68 142.053 1106.53 140.392C1109.37 138.734 1112.68 137.905 1116.44 137.905H1117.1C1120.81 137.905 1124.01 138.68 1126.69 140.227C1129.37 141.778 1131.46 143.976 1132.96 146.823C1134.45 149.673 1135.19 153.006 1135.19 156.822V161.884H1104.16C1104.21 166.808 1105.33 170.487 1107.52 172.92C1109.71 175.354 1112.68 176.569 1116.44 176.569H1117.68C1120.45 176.569 1122.71 176.072 1124.45 175.076C1126.19 174.082 1127.59 172.642 1128.64 170.762L1133.7 173.833C1132.26 176.378 1130.18 178.395 1127.44 179.889C1124.7 181.383 1121.45 182.131 1117.68 182.131H1116.44ZM1104.24 156.822H1128.64V155.909C1128.64 151.817 1127.6 148.719 1125.53 146.615C1123.45 144.514 1120.65 143.463 1117.1 143.463H1116.44C1113.01 143.463 1110.18 144.598 1107.94 146.866C1105.69 149.135 1104.46 152.452 1104.24 156.822Z" fill="black"/>
<path d="M1145.73 181.134V138.901H1151.79V147.78C1152.79 145.014 1154.29 142.788 1156.31 141.1C1158.33 139.412 1161.28 138.569 1165.15 138.569H1169.05V144.625H1164.82C1161.22 144.625 1158.25 145.856 1155.9 148.317C1153.55 150.78 1152.37 154.556 1152.37 159.645V181.134L1145.73 181.134Z" fill="black"/>
<path d="M1187.31 182.131C1182.77 182.131 1179.29 181.05 1176.85 178.895C1174.42 176.737 1173.2 173.639 1173.2 169.601C1173.2 166.281 1174.24 163.559 1176.31 161.428C1178.39 159.299 1181.44 157.957 1185.48 157.403L1202.08 155.164V154.832C1202.08 147.253 1198.71 143.463 1191.95 143.463H1191.04C1185.73 143.463 1182.11 145.511 1180.17 149.603L1174.86 147.031C1176.13 144.155 1178.16 141.916 1180.96 140.311C1183.75 138.707 1187.11 137.905 1191.04 137.905H1192.29C1197.65 137.905 1201.73 139.314 1204.53 142.137C1207.32 144.957 1208.72 149.052 1208.72 154.416V181.134H1202.66V173.582C1201.39 176.24 1199.45 178.328 1196.85 179.848C1194.25 181.369 1191.32 182.131 1188.05 182.131L1187.31 182.131ZM1202.08 160.226L1188.31 162.216C1185.1 162.659 1182.85 163.405 1181.58 164.455C1180.31 165.509 1179.67 167.11 1179.67 169.269C1179.67 171.648 1180.43 173.474 1181.95 174.746C1183.48 176.018 1185.68 176.653 1188.55 176.653H1189.38C1193.2 176.653 1196.27 175.438 1198.59 173.001C1200.92 170.568 1202.08 167.332 1202.08 163.294V160.226Z" fill="black"/>
<path d="M1221.42 181.134V120.562H1228.05V181.134H1221.42Z" fill="black"/>
<path d="M1263.99 181.134V123.052H1270.87V181.134H1263.99Z" fill="black"/>
<path d="M1285.39 181.134V138.901H1291.45V146.45C1292.61 143.906 1294.38 141.845 1296.76 140.268C1299.14 138.693 1302.1 137.905 1305.64 137.905H1306.39C1311.2 137.905 1315.06 139.371 1317.97 142.302C1320.87 145.235 1322.32 149.522 1322.32 155.164V181.134H1315.68V156.242C1315.68 152.093 1314.77 148.954 1312.94 146.823C1311.12 144.695 1308.49 143.631 1305.06 143.631H1304.48C1302.27 143.631 1300.22 144.168 1298.34 145.249C1296.46 146.326 1294.94 147.931 1293.78 150.059C1292.61 152.19 1292.03 154.859 1292.03 158.067V181.134H1285.39Z" fill="black"/>
<path d="M1338.09 181.134V144.376H1329.29V138.901H1338.09V134.669C1338.09 130.188 1339.25 126.65 1341.58 124.048C1343.9 121.447 1347.58 120.148 1352.61 120.148H1359.67V125.791H1352.78C1350.01 125.791 1347.98 126.523 1346.68 127.989C1345.38 129.456 1344.73 131.598 1344.73 134.42V138.901H1359.67L1358.84 144.376H1344.73V181.134L1338.09 181.134Z" fill="black"/>
<path d="M1382.82 182.131C1377.01 182.131 1372.42 180.332 1369.04 176.737C1365.67 173.142 1363.98 168.08 1363.98 161.552V158.481C1363.98 154.224 1364.75 150.559 1366.3 147.488C1367.85 144.417 1370.05 142.053 1372.9 140.392C1375.75 138.734 1379.05 137.905 1382.82 137.905H1383.48C1387.19 137.905 1390.38 138.68 1393.07 140.227C1395.75 141.778 1397.84 143.976 1399.33 146.823C1400.82 149.673 1401.57 153.006 1401.57 156.822V161.884H1370.54C1370.59 166.808 1371.71 170.487 1373.9 172.92C1376.08 175.354 1379.05 176.569 1382.82 176.569H1384.06C1386.83 176.569 1389.08 176.072 1390.83 175.076C1392.57 174.082 1393.96 172.642 1395.02 170.762L1400.08 173.833C1398.64 176.378 1396.55 178.395 1393.81 179.889C1391.07 181.383 1387.82 182.131 1384.06 182.131H1382.82ZM1370.62 156.822H1395.02V155.909C1395.02 151.817 1393.98 148.719 1391.9 146.615C1389.83 144.514 1387.02 143.463 1383.48 143.463H1382.82C1379.39 143.463 1376.55 144.598 1374.31 146.866C1372.07 149.135 1370.84 152.452 1370.62 156.822Z" fill="black"/>
<path d="M1412.11 181.134V138.901H1418.17V147.78C1419.16 145.014 1420.67 142.788 1422.69 141.1C1424.71 139.412 1427.66 138.569 1431.53 138.569H1435.43V144.625H1431.19C1427.6 144.625 1424.62 145.856 1422.27 148.317C1419.92 150.78 1418.75 154.556 1418.75 159.645V181.134L1412.11 181.134Z" fill="black"/>
<path d="M1459.24 182.131C1453.43 182.131 1448.84 180.332 1445.47 176.737C1442.09 173.142 1440.41 168.08 1440.41 161.552V158.481C1440.41 154.224 1441.18 150.559 1442.73 147.488C1444.28 144.417 1446.48 142.053 1449.33 140.392C1452.18 138.734 1455.48 137.905 1459.24 137.905H1459.91C1463.61 137.905 1466.81 138.68 1469.49 140.227C1472.18 141.778 1474.26 143.976 1475.76 146.823C1477.25 149.673 1478 153.006 1478 156.822V161.884H1446.96C1447.02 166.808 1448.14 170.487 1450.32 172.92C1452.51 175.354 1455.48 176.569 1459.24 176.569H1460.49C1463.25 176.569 1465.51 176.072 1467.25 175.076C1468.99 174.082 1470.39 172.642 1471.44 170.762L1476.5 173.833C1475.07 176.378 1472.98 178.395 1470.24 179.889C1467.5 181.383 1464.25 182.131 1460.49 182.131H1459.24ZM1447.05 156.822H1471.44V155.909C1471.44 151.817 1470.4 148.719 1468.33 146.615C1466.25 144.514 1463.45 143.463 1459.91 143.463H1459.24C1455.81 143.463 1452.98 144.598 1450.74 146.866C1448.5 149.135 1447.26 152.452 1447.05 156.822Z" fill="black"/>
<path d="M1488.53 181.134V138.901H1494.59V146.45C1495.76 143.906 1497.52 141.845 1499.9 140.268C1502.28 138.693 1505.24 137.905 1508.78 137.905H1509.53C1514.34 137.905 1518.2 139.371 1521.11 142.302C1524.01 145.235 1525.46 149.522 1525.46 155.164V181.134H1518.82V156.242C1518.82 152.093 1517.91 148.954 1516.09 146.823C1514.26 144.695 1511.63 143.631 1508.2 143.631H1507.62C1505.41 143.631 1503.36 144.168 1501.48 145.249C1499.6 146.326 1498.08 147.931 1496.92 150.059C1495.76 152.19 1495.17 154.859 1495.17 158.067V181.134H1488.53Z" fill="black"/>
<path d="M1555.25 182.131C1549.33 182.131 1544.62 180.332 1541.11 176.737C1537.59 173.142 1535.84 168.08 1535.84 161.552V158.481C1535.84 154.167 1536.65 150.475 1538.29 147.404C1539.92 144.336 1542.2 141.983 1545.13 140.352C1548.06 138.72 1551.44 137.905 1555.25 137.905H1556.17C1559.87 137.905 1563.06 138.774 1565.71 140.519C1568.37 142.261 1570.3 144.571 1571.52 147.447L1566.21 149.935C1565.27 148.001 1563.97 146.464 1562.31 145.33C1560.65 144.198 1558.6 143.631 1556.17 143.631H1555.34C1551.58 143.631 1548.49 144.873 1546.09 147.363C1543.68 149.854 1542.47 153.559 1542.47 158.481V161.552C1542.47 166.53 1543.65 170.252 1546 172.712C1548.35 175.173 1551.46 176.405 1555.34 176.405H1556.17C1558.71 176.405 1560.83 175.864 1562.52 174.787C1564.2 173.709 1565.49 172.256 1566.38 170.43L1571.69 173.001C1570.47 175.713 1568.52 177.912 1565.84 179.6C1563.15 181.285 1559.93 182.131 1556.17 182.131L1555.25 182.131Z" fill="black"/>
<path d="M1598.57 182.131C1592.76 182.131 1588.17 180.332 1584.8 176.737C1581.42 173.142 1579.73 168.08 1579.73 161.552V158.481C1579.73 154.224 1580.51 150.559 1582.06 147.488C1583.61 144.417 1585.81 142.053 1588.66 140.392C1591.5 138.734 1594.81 137.905 1598.57 137.905H1599.23C1602.94 137.905 1606.14 138.68 1608.82 140.227C1611.5 141.778 1613.59 143.976 1615.09 146.823C1616.58 149.673 1617.33 153.006 1617.33 156.822V161.884H1586.29C1586.34 166.808 1587.47 170.487 1589.65 172.92C1591.84 175.354 1594.81 176.569 1598.57 176.569H1599.82C1602.58 176.569 1604.84 176.072 1606.58 175.076C1608.32 174.082 1609.72 172.642 1610.77 170.762L1615.83 173.833C1614.39 176.378 1612.31 178.395 1609.57 179.889C1606.83 181.383 1603.58 182.131 1599.82 182.131H1598.57ZM1586.37 156.822H1610.77V155.909C1610.77 151.817 1609.73 148.719 1607.66 146.615C1605.58 144.514 1602.78 143.463 1599.23 143.463H1598.57C1595.14 143.463 1592.31 144.598 1590.07 146.866C1587.82 149.135 1586.59 152.452 1586.37 156.822Z" fill="black"/>
<path d="M794.115 390.553H979.318" stroke="black" stroke-width="2"/>
<path d="M973.668 409.86L1007.11 390.553L973.668 371.245V409.86Z" fill="black"/>
<path d="M794.115 500.724H979.318" stroke="black" stroke-width="2"/>
<path d="M973.668 520.032L1007.11 500.724L973.668 481.417V520.032Z" fill="black"/>
<path d="M794.115 610.896H979.318" stroke="black" stroke-width="2"/>
<path d="M973.668 630.204L1007.11 610.896L973.668 591.589V630.204Z" fill="black"/>
<path d="M794.115 721.068H979.318" stroke="black" stroke-width="2"/>
<path d="M973.668 740.376L1007.11 721.068L973.668 701.76V740.376Z" fill="black"/>
<path d="M1589.28 390.553H1774.48" stroke="black" stroke-width="2"/>
<path d="M1768.83 409.86L1802.27 390.553L1768.83 371.245V409.86Z" fill="black"/>
<path d="M1589.28 500.724H1774.48" stroke="black" stroke-width="2"/>
<path d="M1768.83 520.032L1802.27 500.724L1768.83 481.417V520.032Z" fill="black"/>
<path d="M1589.28 610.896H1774.48" stroke="black" stroke-width="2"/>
<path d="M1768.83 630.204L1802.27 610.896L1768.83 591.589V630.204Z" fill="black"/>
<path d="M1589.28 721.068H1774.48" stroke="black" stroke-width="2"/>
<path d="M1768.83 740.376L1802.27 721.068L1768.83 701.76V740.376Z" fill="black"/>
<path d="M1102.2 411.284L1093.02 422.293L1264.95 565.549L1274.13 554.54L1102.2 411.284Z" fill="black"/>
<path d="M1269.54 409.626H1097.61V423.952H1269.54V409.626Z" fill="black"/>
<path d="M1103.75 413.104L1091.47 420.474L1263.4 706.984L1275.68 699.615L1103.75 413.104Z" fill="black"/>
<path d="M1263.39 413.101L1091.47 699.619L1103.76 706.988L1275.67 420.47L1263.39 413.101Z" fill="black"/>
<path d="M1264.93 554.517L1093.04 697.821L1102.22 708.827L1274.11 565.523L1264.93 554.517Z" fill="black"/>
<path d="M1269.54 696.137H1097.61V710.462H1269.54V696.137Z" fill="black"/>
<path d="M1102.2 554.54L1093.02 565.549L1264.95 708.804L1274.13 697.795L1102.2 554.54Z" fill="black"/>
<path d="M1269.54 552.882H1097.61V567.207H1269.54V552.882Z" fill="black"/>
<path d="M1264.93 411.261L1093.04 554.565L1102.22 565.572L1274.11 422.268L1264.93 411.261Z" fill="black"/>
<path d="M1495.93 309.997L1266.65 410.176L1272.38 423.302L1501.66 323.122L1495.93 309.997Z" fill="black"/>
<path d="M1271.27 409.84L1267.8 423.738L1497.04 481.04L1500.51 467.142L1271.27 409.84Z" fill="black"/>
<path d="M1274.6 411.725L1264.47 421.853L1493.71 651.062L1503.84 640.933L1274.6 411.725Z" fill="black"/>
<path d="M1275.7 413.137L1263.37 420.441L1492.61 807.23L1504.94 799.927L1275.7 413.137Z" fill="black"/>
<path d="M1493.52 311.571L1264.35 555.166L1274.79 564.983L1503.96 321.389L1493.52 311.571Z" fill="black"/>
<path d="M1496.24 467.335L1267.04 553.387L1272.07 566.8L1501.27 480.748L1496.24 467.335Z" fill="black"/>
<path d="M1272.05 553.337L1267.02 566.752L1496.26 652.705L1501.29 639.29L1272.05 553.337Z" fill="black"/>
<path d="M1274.76 555.134L1264.32 564.954L1493.56 808.488L1503.99 798.668L1274.76 555.134Z" fill="black"/>
<path d="M1492.6 312.851L1263.39 699.655L1275.71 706.958L1504.92 320.154L1492.6 312.851Z" fill="black"/>
<path d="M1493.71 469.027L1264.47 698.235L1274.6 708.364L1503.84 479.155L1493.71 469.027Z" fill="black"/>
<path d="M1497.05 639.089L1267.79 696.309L1271.26 710.208L1500.52 652.988L1497.05 639.089Z" fill="black"/>
<path d="M1272.41 696.738L1266.67 709.862L1495.9 810.14L1501.64 797.017L1272.41 696.738Z" fill="black"/>
<path d="M1269.54 595.858C1249.79 595.858 1233.72 579.793 1233.72 560.044C1233.72 540.296 1249.79 524.231 1269.54 524.231C1289.29 524.231 1305.36 540.296 1305.36 560.044C1305.36 579.793 1289.29 595.858 1269.54 595.858ZM1269.54 538.556C1257.69 538.556 1248.05 548.195 1248.05 560.044C1248.05 571.894 1257.69 581.533 1269.54 581.533C1281.39 581.533 1291.03 571.894 1291.03 560.044C1291.03 548.195 1281.39 538.556 1269.54 538.556Z" fill="black"/>
<path d="M1498.77 839.392C1479.02 839.392 1462.96 823.327 1462.96 803.579C1462.96 783.83 1479.02 767.765 1498.77 767.765C1518.52 767.765 1534.59 783.83 1534.59 803.579C1534.59 823.327 1518.52 839.392 1498.77 839.392ZM1498.77 782.09C1486.92 782.09 1477.28 791.729 1477.28 803.579C1477.28 815.428 1486.92 825.067 1498.77 825.067C1510.62 825.067 1520.26 815.428 1520.26 803.579C1520.26 791.729 1510.62 782.09 1498.77 782.09Z" fill="black"/>
<path d="M1498.77 352.324C1479.02 352.324 1462.96 336.258 1462.96 316.51C1462.96 296.762 1479.02 280.696 1498.77 280.696C1518.52 280.696 1534.59 296.762 1534.59 316.51C1534.59 336.258 1518.52 352.324 1498.77 352.324ZM1498.77 295.022C1486.92 295.022 1477.28 304.661 1477.28 316.51C1477.28 328.359 1486.92 337.998 1498.77 337.998C1510.62 337.998 1520.26 328.359 1520.26 316.51C1520.26 304.661 1510.62 295.022 1498.77 295.022Z" fill="black"/>
<path d="M1269.54 452.603C1249.79 452.603 1233.72 436.537 1233.72 416.789C1233.72 397.041 1249.79 380.975 1269.54 380.975C1289.29 380.975 1305.36 397.041 1305.36 416.789C1305.36 436.537 1289.29 452.603 1269.54 452.603ZM1269.54 395.301C1257.69 395.301 1248.05 404.94 1248.05 416.789C1248.05 428.638 1257.69 438.277 1269.54 438.277C1281.39 438.277 1291.03 428.638 1291.03 416.789C1291.03 404.94 1281.39 395.301 1269.54 395.301Z" fill="black"/>
<path d="M1269.54 739.114C1249.79 739.114 1233.72 723.048 1233.72 703.3C1233.72 683.551 1249.79 667.486 1269.54 667.486C1289.29 667.486 1305.36 683.551 1305.36 703.3C1305.36 723.048 1289.29 739.114 1269.54 739.114ZM1269.54 681.811C1257.69 681.811 1248.05 691.45 1248.05 703.3C1248.05 715.149 1257.69 724.788 1269.54 724.788C1281.39 724.788 1291.03 715.149 1291.03 703.3C1291.03 691.45 1281.39 681.811 1269.54 681.811Z" fill="black"/>
<path d="M1097.61 452.603C1077.86 452.603 1061.79 436.537 1061.79 416.789C1061.79 397.041 1077.86 380.975 1097.61 380.975C1117.36 380.975 1133.43 397.041 1133.43 416.789C1133.43 436.537 1117.36 452.603 1097.61 452.603ZM1097.61 395.301C1085.76 395.301 1076.12 404.94 1076.12 416.789C1076.12 428.638 1085.76 438.277 1097.61 438.277C1109.46 438.277 1119.1 428.638 1119.1 416.789C1119.1 404.94 1109.46 395.301 1097.61 395.301Z" fill="black"/>
<path d="M1097.61 595.858C1077.86 595.858 1061.79 579.793 1061.79 560.044C1061.79 540.296 1077.86 524.231 1097.61 524.231C1117.36 524.231 1133.43 540.296 1133.43 560.044C1133.43 579.793 1117.36 595.858 1097.61 595.858ZM1097.61 538.556C1085.76 538.556 1076.12 548.195 1076.12 560.044C1076.12 571.894 1085.76 581.533 1097.61 581.533C1109.46 581.533 1119.1 571.894 1119.1 560.044C1119.1 548.195 1109.46 538.556 1097.61 538.556Z" fill="black"/>
<path d="M1097.61 739.114C1077.86 739.114 1061.79 723.048 1061.79 703.3C1061.79 683.551 1077.86 667.486 1097.61 667.486C1117.36 667.486 1133.43 683.551 1133.43 703.3C1133.43 723.048 1117.36 739.114 1097.61 739.114ZM1097.61 681.811C1085.76 681.811 1076.12 691.45 1076.12 703.3C1076.12 715.149 1085.76 724.788 1097.61 724.788C1109.46 724.788 1119.1 715.149 1119.1 703.3C1119.1 691.45 1109.46 681.811 1097.61 681.811Z" fill="black"/>
<path d="M1498.77 509.905C1479.02 509.905 1462.96 493.839 1462.96 474.091C1462.96 454.343 1479.02 438.277 1498.77 438.277C1518.52 438.277 1534.59 454.343 1534.59 474.091C1534.59 493.839 1518.52 509.905 1498.77 509.905ZM1498.77 452.603C1486.92 452.603 1477.28 462.242 1477.28 474.091C1477.28 485.94 1486.92 495.579 1498.77 495.579C1510.62 495.579 1520.26 485.94 1520.26 474.091C1520.26 462.242 1510.62 452.603 1498.77 452.603Z" fill="black"/>
<path d="M1498.77 681.811C1479.02 681.811 1462.96 665.746 1462.96 645.998C1462.96 626.249 1479.02 610.184 1498.77 610.184C1518.52 610.184 1534.59 626.249 1534.59 645.998C1534.59 665.746 1518.52 681.811 1498.77 681.811ZM1498.77 624.509C1486.92 624.509 1477.28 634.148 1477.28 645.998C1477.28 657.847 1486.92 667.486 1498.77 667.486C1510.62 667.486 1520.26 657.847 1520.26 645.998C1520.26 634.148 1510.62 624.509 1498.77 624.509Z" fill="black"/>
<path d="M1097.61 395.301C1085.76 395.301 1076.12 404.94 1076.12 416.789C1076.12 428.638 1085.76 438.277 1097.61 438.277C1109.46 438.277 1119.1 428.638 1119.1 416.789C1119.1 404.94 1109.46 395.301 1097.61 395.301Z" fill="white"/>
<path d="M1269.54 395.301C1257.69 395.301 1248.05 404.94 1248.05 416.789C1248.05 428.638 1257.69 438.277 1269.54 438.277C1281.39 438.277 1291.03 428.638 1291.03 416.789C1291.03 404.94 1281.39 395.301 1269.54 395.301Z" fill="white"/>
<path d="M1498.77 295.022C1486.92 295.022 1477.28 304.661 1477.28 316.51C1477.28 328.359 1486.92 337.998 1498.77 337.998C1510.62 337.998 1520.26 328.359 1520.26 316.51C1520.26 304.661 1510.62 295.022 1498.77 295.022Z" fill="white"/>
<path d="M1498.77 452.603C1486.92 452.603 1477.28 462.242 1477.28 474.091C1477.28 485.94 1486.92 495.579 1498.77 495.579C1510.62 495.579 1520.26 485.94 1520.26 474.091C1520.26 462.242 1510.62 452.603 1498.77 452.603Z" fill="white"/>
<path d="M1269.54 538.556C1257.69 538.556 1248.05 548.195 1248.05 560.044C1248.05 571.894 1257.69 581.533 1269.54 581.533C1281.39 581.533 1291.03 571.894 1291.03 560.044C1291.03 548.195 1281.39 538.556 1269.54 538.556Z" fill="white"/>
<path d="M1097.61 538.556C1085.76 538.556 1076.12 548.195 1076.12 560.044C1076.12 571.894 1085.76 581.533 1097.61 581.533C1109.46 581.533 1119.1 571.894 1119.1 560.044C1119.1 548.195 1109.46 538.556 1097.61 538.556Z" fill="white"/>
<path d="M1097.61 681.811C1085.76 681.811 1076.12 691.45 1076.12 703.3C1076.12 715.149 1085.76 724.788 1097.61 724.788C1109.46 724.788 1119.1 715.149 1119.1 703.3C1119.1 691.45 1109.46 681.811 1097.61 681.811Z" fill="white"/>
<path d="M1269.54 681.811C1257.69 681.811 1248.05 691.45 1248.05 703.3C1248.05 715.149 1257.69 724.788 1269.54 724.788C1281.39 724.788 1291.03 715.149 1291.03 703.3C1291.03 691.45 1281.39 681.811 1269.54 681.811Z" fill="white"/>
<path d="M1498.77 782.09C1486.92 782.09 1477.28 791.729 1477.28 803.579C1477.28 815.428 1486.92 825.067 1498.77 825.067C1510.62 825.067 1520.26 815.428 1520.26 803.579C1520.26 791.729 1510.62 782.09 1498.77 782.09Z" fill="white"/>
<path d="M1498.77 624.509C1486.92 624.509 1477.28 634.148 1477.28 645.998C1477.28 657.847 1486.92 667.486 1498.77 667.486C1510.62 667.486 1520.26 657.847 1520.26 645.998C1520.26 634.148 1510.62 624.509 1498.77 624.509Z" fill="white"/>
<path d="M1862.46 413.644V367.179H1872.16V413.644H1862.46Z" fill="black"/>
<path d="M1881.98 413.644V379.393H1890.08V383.641C1891.23 382.005 1892.7 380.732 1894.5 379.825C1896.29 378.917 1898.29 378.464 1900.5 378.464H1901.17C1905.06 378.464 1908.15 379.668 1910.43 382.08C1912.71 384.492 1913.85 387.933 1913.85 392.403V413.644H1904.55V393.665C1904.55 391.364 1904.08 389.581 1903.12 388.32C1902.17 387.058 1900.68 386.429 1898.65 386.429H1898.11C1897.01 386.429 1895.93 386.718 1894.89 387.291C1893.85 387.866 1892.99 388.752 1892.3 389.946C1891.62 391.142 1891.28 392.711 1891.28 394.659V413.644H1881.98Z" fill="black"/>
<path d="M1925.93 413.644V387.158H1919.09V379.393H1925.93V377.932C1925.93 373.683 1926.99 370.431 1929.12 368.173C1931.24 365.918 1934.78 364.789 1939.74 364.789H1945.65V372.621H1940.07C1938.34 372.621 1937.1 373.054 1936.35 373.915C1935.6 374.78 1935.22 376.006 1935.22 377.599V379.393H1945.65L1944.52 387.158H1935.22V413.644H1925.93Z" fill="black"/>
<path d="M1964.63 414.573C1961.45 414.573 1958.59 413.909 1956.07 412.583C1953.55 411.254 1951.55 409.32 1950.1 406.773C1948.63 404.228 1947.9 401.144 1947.9 397.514V395.523C1947.9 391.85 1948.63 388.752 1950.1 386.229C1951.55 383.706 1953.55 381.783 1956.07 380.454C1958.59 379.125 1961.45 378.464 1964.63 378.464H1965.1C1968.29 378.464 1971.14 379.125 1973.66 380.454C1976.18 381.783 1978.18 383.706 1979.64 386.229C1981.1 388.752 1981.83 391.85 1981.83 395.523V397.514C1981.83 401.144 1981.1 404.228 1979.64 406.773C1978.18 409.32 1976.18 411.254 1973.66 412.583C1971.14 413.909 1968.29 414.573 1965.1 414.573H1964.63ZM1964.63 406.608H1965.1C1967.26 406.608 1969.05 405.9 1970.44 404.485C1971.84 403.067 1972.53 400.812 1972.53 397.714V395.323C1972.53 392.225 1971.84 389.97 1970.44 388.552C1969.05 387.137 1967.26 386.429 1965.1 386.429H1964.63C1962.46 386.429 1960.68 387.137 1959.29 388.552C1957.9 389.97 1957.2 392.225 1957.2 395.323V397.714C1957.2 400.812 1957.9 403.067 1959.29 404.485C1960.68 405.9 1962.46 406.608 1964.63 406.608Z" fill="black"/>
<path d="M1988.66 413.644V379.393H1996.76V385.232C1997.7 383.242 1998.86 381.705 2000.28 380.619C2001.7 379.536 2003.62 378.993 2006.06 378.993H2009.71V387.558H2006.39C2005.06 387.558 2003.76 387.823 2002.47 388.355C2001.19 388.884 2000.12 389.803 1999.25 391.107C1998.39 392.414 1997.96 394.219 1997.96 396.517V413.644H1988.66Z" fill="black"/>
<path d="M2014.56 413.644V379.393H2022.66V383.574C2023.76 381.937 2025.15 380.676 2026.84 379.79C2028.52 378.907 2030.42 378.464 2032.55 378.464H2033.21C2037.99 378.464 2041.42 380.322 2043.5 384.038C2044.65 382.269 2046.12 380.897 2047.92 379.922C2049.71 378.95 2051.76 378.464 2054.06 378.464H2054.72C2058.44 378.464 2061.39 379.668 2063.58 382.08C2065.78 384.492 2066.87 387.933 2066.87 392.403V413.644H2057.58V393.665C2057.58 391.364 2057.14 389.581 2056.28 388.32C2055.42 387.058 2054.06 386.429 2052.2 386.429H2051.67C2050.16 386.429 2048.74 387.083 2047.39 388.387C2046.04 389.692 2045.36 391.782 2045.36 394.659V413.644H2036.07V393.665C2036.07 391.364 2035.64 389.581 2034.77 388.32C2033.91 387.058 2032.55 386.429 2030.69 386.429H2030.16C2028.65 386.429 2027.22 387.083 2025.88 388.387C2024.52 389.692 2023.85 391.782 2023.85 394.659V413.644L2014.56 413.644Z" fill="black"/>
<path d="M2084.99 414.573C2081.32 414.573 2078.48 413.666 2076.46 411.851C2074.45 410.038 2073.44 407.494 2073.44 404.218C2073.44 401.209 2074.36 398.797 2076.2 396.982C2078.03 395.169 2080.7 394.04 2084.2 393.597L2094.95 392.204V391.939C2094.95 387.912 2093.11 385.897 2089.44 385.897H2088.78C2087.14 385.897 2085.77 386.197 2084.66 386.794C2083.55 387.39 2082.62 388.444 2081.87 389.946L2074.77 386.229C2075.79 383.885 2077.5 382.005 2079.91 380.587C2082.32 379.171 2085.26 378.464 2088.71 378.464H2089.7C2099.4 378.464 2104.25 382.999 2104.25 392.071V413.644H2096.14V409.331C2095.09 410.967 2093.61 412.25 2091.73 413.18C2089.85 414.109 2087.72 414.573 2085.32 414.573L2084.99 414.573ZM2094.95 398.443L2087.85 399.44C2085.81 399.75 2084.39 400.18 2083.6 400.733C2082.8 401.287 2082.41 402.184 2082.41 403.421C2082.41 404.617 2082.86 405.557 2083.76 406.243C2084.67 406.929 2085.88 407.272 2087.38 407.272H2087.91C2090.13 407.272 2091.85 406.63 2093.09 405.347C2094.33 404.064 2094.95 402.316 2094.95 400.101V398.443Z" fill="black"/>
<path d="M2127.94 414.041C2123.21 414.041 2119.86 413.026 2117.89 410.989C2115.92 408.955 2114.93 405.922 2114.93 401.895V387.158H2107.76V379.393H2114.93V369.634H2124.23V379.393H2134.78L2133.66 387.158H2124.23V401.563C2124.23 403.202 2124.64 404.385 2125.45 405.114C2126.28 405.844 2127.39 406.208 2128.81 406.208H2134.78V414.041H2127.94Z" fill="black"/>
<path d="M2141.09 374.547V365.253H2150.65V374.547H2141.09ZM2141.22 413.644V379.393H2150.52V413.644H2141.22Z" fill="black"/>
<path d="M2174.08 414.573C2170.9 414.573 2168.04 413.909 2165.52 412.583C2163 411.254 2161 409.32 2159.54 406.773C2158.08 404.228 2157.35 401.144 2157.35 397.514V395.523C2157.35 391.85 2158.08 388.752 2159.54 386.229C2161 383.706 2163 381.783 2165.52 380.454C2168.04 379.125 2170.9 378.464 2174.08 378.464H2174.55C2177.74 378.464 2180.59 379.125 2183.11 380.454C2185.63 381.783 2187.63 383.706 2189.09 386.229C2190.55 388.752 2191.28 391.85 2191.28 395.523V397.514C2191.28 401.144 2190.55 404.228 2189.09 406.773C2187.63 409.32 2185.63 411.254 2183.11 412.583C2180.59 413.909 2177.74 414.573 2174.55 414.573H2174.08ZM2174.08 406.608H2174.55C2176.71 406.608 2178.5 405.9 2179.89 404.485C2181.28 403.067 2181.98 400.812 2181.98 397.714V395.323C2181.98 392.225 2181.28 389.97 2179.89 388.552C2178.5 387.137 2176.71 386.429 2174.55 386.429H2174.08C2171.91 386.429 2170.13 387.137 2168.74 388.552C2167.35 389.97 2166.65 392.225 2166.65 395.323V397.714C2166.65 400.812 2167.35 403.067 2168.74 404.485C2170.13 405.9 2171.91 406.608 2174.08 406.608Z" fill="black"/>
<path d="M2198.11 413.644V379.393H2206.21V383.641C2207.36 382.005 2208.84 380.732 2210.63 379.825C2212.42 378.917 2214.42 378.464 2216.64 378.464H2217.3C2221.19 378.464 2224.28 379.668 2226.56 382.08C2228.84 384.492 2229.98 387.933 2229.98 392.403V413.644H2220.69V393.665C2220.69 391.364 2220.21 389.581 2219.26 388.32C2218.31 387.058 2216.81 386.429 2214.78 386.429H2214.25C2213.14 386.429 2212.07 386.718 2211.03 387.291C2209.99 387.866 2209.12 388.752 2208.44 389.946C2207.75 391.142 2207.41 392.711 2207.41 394.659V413.644H2198.11Z" fill="black"/>
<path d="M1863.26 524.277V477.812H1878.99C1884.39 477.812 1888.55 478.952 1891.48 481.229C1894.4 483.508 1895.86 486.728 1895.86 490.888V492.416C1895.86 495.558 1895.02 498.18 1893.34 500.282C1891.65 502.383 1889.22 503.855 1886.03 504.695L1897.12 524.277H1891.01L1880.52 505.559H1868.77V524.277H1863.26ZM1868.77 500.846H1878.93C1882.6 500.846 1885.42 500.171 1887.39 498.82C1889.36 497.473 1890.35 495.401 1890.35 492.613V490.755C1890.35 488.011 1889.36 485.955 1887.39 484.583C1885.42 483.211 1882.6 482.525 1878.93 482.525H1868.77V500.846Z" fill="black"/>
<path d="M1917.63 525.074C1912.98 525.074 1909.31 523.637 1906.61 520.758C1903.91 517.884 1902.56 513.835 1902.56 508.611V506.156C1902.56 502.748 1903.18 499.817 1904.42 497.359C1905.66 494.904 1907.42 493.013 1909.7 491.684C1911.98 490.358 1914.62 489.694 1917.63 489.694H1918.16C1921.13 489.694 1923.68 490.315 1925.83 491.552C1927.98 492.792 1929.65 494.55 1930.84 496.83C1932.04 499.109 1932.63 501.775 1932.63 504.827V508.876H1907.81C1907.85 512.817 1908.75 515.758 1910.49 517.706C1912.24 519.653 1914.62 520.625 1917.63 520.625H1918.63C1920.84 520.625 1922.64 520.228 1924.04 519.432C1925.43 518.635 1926.55 517.484 1927.39 515.98L1931.44 518.435C1930.29 520.471 1928.62 522.087 1926.43 523.281C1924.24 524.477 1921.64 525.074 1918.63 525.074L1917.63 525.074ZM1907.87 504.827H1927.39V504.098C1927.39 500.824 1926.56 498.345 1924.9 496.662C1923.24 494.982 1920.99 494.139 1918.16 494.139H1917.63C1914.89 494.139 1912.62 495.047 1910.83 496.862C1909.04 498.677 1908.05 501.332 1907.87 504.827Z" fill="black"/>
<path d="M1952.95 525.074C1945.56 525.074 1940.73 522.484 1938.47 517.309L1942.73 515.183C1943.61 517.041 1944.88 518.413 1946.54 519.299C1948.2 520.185 1950.36 520.625 1953.02 520.625H1953.74C1959.06 520.625 1961.71 518.924 1961.71 515.515V515.183C1961.71 512.22 1959.96 510.516 1956.46 510.073L1948.9 509.011C1945.93 508.611 1943.64 507.661 1942.03 506.156C1940.41 504.652 1939.6 502.615 1939.6 500.049V499.317C1939.6 496.443 1940.75 494.118 1943.06 492.349C1945.36 490.58 1948.39 489.694 1952.15 489.694H1953.02C1956.11 489.694 1958.81 490.323 1961.11 491.584C1963.41 492.846 1965.01 494.607 1965.89 496.862L1961.65 498.788C1960.23 495.69 1957.35 494.139 1953.02 494.139H1952.22C1949.92 494.139 1948.09 494.607 1946.74 495.536C1945.39 496.465 1944.72 497.705 1944.72 499.252V499.649C1944.72 501.022 1945.12 502.072 1945.95 502.804C1946.76 503.533 1948.1 504.03 1949.96 504.298L1957.59 505.359C1960.52 505.756 1962.79 506.775 1964.4 508.411C1966.02 510.051 1966.82 512.174 1966.82 514.786V515.515C1966.82 518.656 1965.72 521.036 1963.5 522.651C1961.29 524.266 1958.06 525.074 1953.81 525.074L1952.95 525.074Z" fill="black"/>
<path d="M1974.86 537.553V490.49H1979.7V496.265C1980.72 494.274 1982.19 492.681 1984.12 491.484C1986.04 490.291 1988.38 489.694 1991.12 489.694H1991.58C1994.42 489.694 1996.92 490.323 1999.09 491.584C2001.26 492.846 2002.97 494.704 2004.23 497.162C2005.49 499.617 2006.13 502.615 2006.13 506.156V508.611C2006.13 512.152 2005.49 515.151 2004.23 517.606C2002.97 520.061 2001.26 521.922 1999.09 523.181C1996.92 524.442 1994.42 525.074 1991.58 525.074H1991.12C1988.6 525.074 1986.4 524.542 1984.52 523.48C1982.64 522.419 1981.18 520.982 1980.17 519.167V537.553L1974.86 537.553ZM1990.12 520.493H1990.72C1993.6 520.493 1996 519.521 1997.92 517.573C1999.85 515.626 2000.82 512.617 2000.82 508.544V506.156C2000.82 502.086 1999.85 499.085 1997.92 497.162C1996 495.236 1993.6 494.274 1990.72 494.274H1990.12C1988.31 494.274 1986.64 494.696 1985.11 495.536C1983.59 496.376 1982.38 497.68 1981.5 499.452C1980.61 501.221 1980.17 503.523 1980.17 506.353V508.412C1980.17 512.617 1981.14 515.68 1983.09 517.606C1985.03 519.532 1987.38 520.493 1990.12 520.493Z" fill="black"/>
<path d="M2028.43 525.074C2025.51 525.074 2022.89 524.42 2020.56 523.116C2018.24 521.811 2016.4 519.918 2015.05 517.441C2013.7 514.962 2013.03 511.996 2013.03 508.544V506.221C2013.03 502.769 2013.7 499.806 2015.05 497.327C2016.4 494.85 2018.24 492.956 2020.56 491.652C2022.89 490.347 2025.51 489.694 2028.43 489.694H2029.1C2032.06 489.694 2034.71 490.347 2037.03 491.652C2039.35 492.956 2041.19 494.839 2042.54 497.294C2043.89 499.749 2044.56 502.704 2044.56 506.156V508.611C2044.56 512.063 2043.89 515.018 2042.54 517.473C2041.19 519.929 2039.35 521.811 2037.03 523.116C2034.71 524.42 2032.06 525.074 2029.1 525.074H2028.43ZM2028.5 520.493H2029.03C2031.9 520.493 2034.33 519.499 2036.3 517.506C2038.27 515.515 2039.25 512.55 2039.25 508.611V506.156C2039.25 502.218 2038.27 499.252 2036.3 497.262C2034.33 495.268 2031.9 494.274 2029.03 494.274H2028.5C2025.66 494.274 2023.26 495.268 2021.29 497.262C2019.32 499.252 2018.34 502.218 2018.34 506.156V508.611C2018.34 512.55 2019.32 515.515 2021.29 517.506C2023.26 519.499 2025.66 520.493 2028.5 520.493Z" fill="black"/>
<path d="M2053.26 524.277V490.49H2058.1V496.53C2059.03 494.496 2060.45 492.846 2062.35 491.584C2064.26 490.323 2066.62 489.694 2069.46 489.694H2070.06C2073.9 489.694 2076.99 490.866 2079.32 493.21C2081.64 495.557 2082.8 498.988 2082.8 503.501V524.277H2077.49V504.363C2077.49 501.043 2076.76 498.534 2075.3 496.83C2073.84 495.125 2071.74 494.274 2068.99 494.274H2068.53C2066.76 494.274 2065.12 494.704 2063.62 495.568C2062.11 496.43 2060.89 497.716 2059.96 499.417C2059.03 501.121 2058.57 503.258 2058.57 505.824V524.277H2053.26Z" fill="black"/>
<path d="M2104.84 525.074C2097.45 525.074 2092.62 522.484 2090.37 517.309L2094.62 515.183C2095.5 517.041 2096.77 518.413 2098.44 519.299C2100.09 520.185 2102.25 520.625 2104.91 520.625H2105.64C2110.95 520.625 2113.6 518.924 2113.6 515.515V515.183C2113.6 512.22 2111.86 510.516 2108.36 510.073L2100.79 509.011C2097.82 508.611 2095.53 507.661 2093.92 506.156C2092.3 504.652 2091.5 502.615 2091.5 500.049V499.317C2091.5 496.443 2092.65 494.118 2094.95 492.349C2097.25 490.58 2100.28 489.694 2104.04 489.694H2104.91C2108 489.694 2110.7 490.323 2113.01 491.584C2115.31 492.846 2116.9 494.607 2117.79 496.862L2113.54 498.788C2112.12 495.69 2109.25 494.139 2104.91 494.139H2104.11C2101.81 494.139 2099.98 494.607 2098.64 495.536C2097.28 496.465 2096.61 497.705 2096.61 499.252V499.649C2096.61 501.022 2097.02 502.072 2097.84 502.804C2098.66 503.533 2099.99 504.03 2101.86 504.298L2109.49 505.359C2112.41 505.756 2114.68 506.775 2116.29 508.411C2117.91 510.051 2118.72 512.174 2118.72 514.786V515.515C2118.72 518.656 2117.61 521.036 2115.4 522.651C2113.18 524.266 2109.95 525.074 2105.7 525.074L2104.84 525.074Z" fill="black"/>
<path d="M2139.96 525.074C2135.31 525.074 2131.64 523.637 2128.94 520.758C2126.24 517.884 2124.89 513.835 2124.89 508.611V506.156C2124.89 502.748 2125.51 499.817 2126.75 497.359C2127.99 494.904 2129.75 493.013 2132.03 491.684C2134.3 490.358 2136.95 489.694 2139.96 489.694H2140.49C2143.46 489.694 2146.01 490.315 2148.16 491.552C2150.31 492.792 2151.98 494.55 2153.17 496.83C2154.36 499.109 2154.96 501.775 2154.96 504.827V508.876H2130.13C2130.18 512.817 2131.07 515.758 2132.82 517.706C2134.57 519.653 2136.95 520.625 2139.96 520.625H2140.95C2143.17 520.625 2144.97 520.228 2146.37 519.432C2147.76 518.635 2148.88 517.484 2149.72 515.98L2153.77 518.435C2152.62 520.471 2150.95 522.087 2148.76 523.281C2146.56 524.477 2143.96 525.074 2140.95 525.074L2139.96 525.074ZM2130.2 504.827H2149.72V504.098C2149.72 500.824 2148.89 498.345 2147.23 496.662C2145.57 494.982 2143.32 494.139 2140.49 494.139H2139.96C2137.22 494.139 2134.95 495.047 2133.15 496.862C2131.36 498.677 2130.38 501.332 2130.2 504.827Z" fill="black"/>
<path d="M1881.05 635.707C1874.64 635.707 1869.71 633.727 1866.28 629.765C1862.85 625.805 1861.14 620.263 1861.14 613.137V610.15C1861.14 605.548 1861.93 601.556 1863.53 598.168C1865.12 594.784 1867.41 592.172 1870.4 590.336C1873.38 588.502 1876.94 587.581 1881.05 587.581H1881.91C1886.12 587.581 1889.66 588.556 1892.54 590.503C1895.42 592.45 1897.45 595.216 1898.65 598.801L1893.6 600.526C1892.76 597.915 1891.32 595.924 1889.28 594.552C1887.25 593.18 1884.79 592.494 1881.91 592.494H1881.12C1876.56 592.494 1873.01 594.02 1870.46 597.075C1867.92 600.127 1866.65 604.443 1866.65 610.018V613.27C1866.65 619.023 1867.88 623.393 1870.36 626.38C1872.84 629.368 1876.43 630.861 1881.12 630.861H1881.91C1884.88 630.861 1887.41 630.208 1889.52 628.903C1891.62 627.599 1893.09 625.684 1893.93 623.161L1898.85 625.087C1897.6 628.449 1895.51 631.061 1892.57 632.919C1889.63 634.778 1886.07 635.707 1881.91 635.707L1881.05 635.707Z" fill="black"/>
<path d="M1907.14 634.91V586.454H1912.45V634.91H1907.14Z" fill="black"/>
<path d="M1922.94 594.02V587.98H1928.52V594.02H1922.94ZM1923.07 634.91V601.123H1928.38V634.91H1923.07Z" fill="black"/>
<path d="M1952.68 635.707C1947.94 635.707 1944.17 634.27 1941.36 631.391C1938.55 628.517 1937.15 624.468 1937.15 619.244V616.789C1937.15 613.337 1937.8 610.382 1939.11 607.927C1940.41 605.472 1942.24 603.589 1944.58 602.285C1946.93 600.98 1949.63 600.326 1952.68 600.326H1953.41C1956.38 600.326 1958.92 601.023 1961.05 602.417C1963.17 603.811 1964.72 605.658 1965.69 607.959L1961.45 609.95C1960.69 608.402 1959.65 607.173 1958.32 606.266C1957 605.361 1955.36 604.907 1953.41 604.907H1952.75C1949.74 604.907 1947.27 605.901 1945.35 607.895C1943.42 609.885 1942.46 612.851 1942.46 616.789V619.244C1942.46 623.228 1943.4 626.205 1945.28 628.174C1947.16 630.143 1949.65 631.126 1952.75 631.126H1953.41C1955.45 631.126 1957.14 630.694 1958.49 629.832C1959.84 628.968 1960.87 627.806 1961.58 626.348L1965.83 628.406C1964.85 630.572 1963.29 632.333 1961.15 633.681C1959 635.032 1956.42 635.707 1953.41 635.707L1952.68 635.707Z" fill="black"/>
<path d="M1974.13 634.91V586.454H1979.44V616.389L1996.17 601.123H2003.14L1989 613.934L2004.2 634.91H1997.76L1985.08 617.186L1979.44 622.299V634.91H1974.13Z" fill="black"/>
<path d="M2028.63 634.91V588.445H2044.96C2050.23 588.445 2054.31 589.628 2057.21 591.997C2060.11 594.363 2061.56 597.715 2061.56 602.052V603.646C2061.56 607.984 2060.08 611.347 2057.14 613.734C2054.2 616.125 2050.14 617.318 2044.96 617.318H2034.14V634.91H2028.63ZM2034.14 612.605H2044.9C2048.43 612.605 2051.18 611.876 2053.13 610.415C2055.07 608.956 2056.05 606.744 2056.05 603.778V601.985C2056.05 599.022 2055.07 596.807 2053.13 595.349C2051.18 593.887 2048.43 593.158 2044.9 593.158H2034.14V612.605Z" fill="black"/>
<path d="M2068.33 634.91V601.123H2073.18V608.224C2073.97 606.012 2075.18 604.232 2076.79 602.882C2078.41 601.531 2080.77 600.859 2083.86 600.859H2086.98V605.704H2083.6C2080.72 605.704 2078.34 606.687 2076.46 608.656C2074.58 610.625 2073.64 613.648 2073.64 617.718V634.91H2068.33Z" fill="black"/>
<path d="M2106.37 635.707C2103.45 635.707 2100.82 635.053 2098.5 633.749C2096.18 632.444 2094.34 630.551 2092.99 628.074C2091.64 625.594 2090.97 622.629 2090.97 619.177V616.854C2090.97 613.402 2091.64 610.439 2092.99 607.959C2094.34 605.483 2096.18 603.589 2098.5 602.285C2100.82 600.98 2103.45 600.326 2106.37 600.326H2107.03C2110 600.326 2112.64 600.98 2114.96 602.285C2117.29 603.589 2119.12 605.472 2120.48 607.927C2121.82 610.382 2122.5 613.337 2122.5 616.789V619.244C2122.5 622.696 2121.82 625.651 2120.48 628.106C2119.12 630.561 2117.29 632.444 2114.96 633.749C2112.64 635.053 2110 635.707 2107.03 635.707H2106.37ZM2106.43 631.126H2106.97C2109.84 631.126 2112.27 630.132 2114.24 628.139C2116.2 626.148 2117.19 623.182 2117.19 619.244V616.789C2117.19 612.851 2116.2 609.885 2114.24 607.895C2112.27 605.901 2109.84 604.907 2106.97 604.907H2106.43C2103.6 604.907 2101.2 605.901 2099.23 607.895C2097.26 609.885 2096.28 612.851 2096.28 616.789V619.244C2096.28 623.182 2097.26 626.148 2099.23 628.139C2101.2 630.132 2103.6 631.126 2106.43 631.126Z" fill="black"/>
<path d="M2147.46 635.707C2144.72 635.707 2142.38 635.11 2140.46 633.913C2138.53 632.72 2137.06 631.104 2136.04 629.068V634.91H2131.2V586.454H2136.51V606.301C2137.53 604.486 2138.98 603.038 2140.86 601.952C2142.74 600.869 2144.94 600.326 2147.46 600.326H2147.93C2150.76 600.326 2153.26 600.956 2155.43 602.217C2157.6 603.478 2159.31 605.337 2160.57 607.795C2161.84 610.25 2162.47 613.248 2162.47 616.789V619.244C2162.47 622.785 2161.84 625.783 2160.57 628.239C2159.31 630.694 2157.6 632.555 2155.43 633.813C2153.26 635.075 2150.76 635.707 2147.93 635.707L2147.46 635.707ZM2146.46 631.126H2147.06C2149.94 631.126 2152.34 630.154 2154.27 628.206C2156.19 626.259 2157.16 623.25 2157.16 619.177V616.789C2157.16 612.719 2156.19 609.718 2154.27 607.795C2152.34 605.869 2149.94 604.907 2147.06 604.907H2146.46C2144.65 604.907 2142.98 605.329 2141.45 606.169C2139.93 607.009 2138.72 608.313 2137.84 610.085C2136.95 611.854 2136.51 614.156 2136.51 616.986V619.044C2136.51 623.25 2137.48 626.313 2139.43 628.239C2141.38 630.164 2143.72 631.126 2146.46 631.126Z" fill="black"/>
<path d="M2179.99 635.707C2176.36 635.707 2173.58 634.842 2171.62 633.117C2169.68 631.391 2168.7 628.914 2168.7 625.683C2168.7 623.028 2169.53 620.849 2171.2 619.144C2172.85 617.443 2175.3 616.368 2178.53 615.925L2191.81 614.134V613.867C2191.81 607.805 2189.11 604.772 2183.71 604.772H2182.98C2178.73 604.772 2175.83 606.412 2174.28 609.685L2170.03 607.627C2171.05 605.329 2172.68 603.535 2174.91 602.252C2177.15 600.969 2179.84 600.326 2182.98 600.326H2183.98C2188.26 600.326 2191.53 601.455 2193.76 603.711C2196 605.969 2197.12 609.245 2197.12 613.537V634.91H2192.27V628.871C2191.25 630.994 2189.71 632.665 2187.63 633.881C2185.54 635.099 2183.2 635.707 2180.59 635.707H2179.99ZM2191.81 618.183L2180.79 619.776C2178.22 620.13 2176.43 620.727 2175.41 621.567C2174.39 622.41 2173.88 623.693 2173.88 625.419C2173.88 627.32 2174.49 628.781 2175.71 629.8C2176.92 630.818 2178.69 631.326 2180.99 631.326H2181.65C2184.7 631.326 2187.16 630.353 2189.02 628.406C2190.88 626.459 2191.81 623.868 2191.81 620.638V618.183Z" fill="black"/>
<path d="M2223.54 635.707C2220.8 635.707 2218.46 635.11 2216.54 633.913C2214.61 632.72 2213.14 631.104 2212.12 629.068V634.91H2207.28V586.454H2212.59V606.301C2213.61 604.486 2215.06 603.038 2216.94 601.952C2218.82 600.869 2221.02 600.326 2223.54 600.326H2224.01C2226.84 600.326 2229.34 600.956 2231.51 602.217C2233.68 603.478 2235.39 605.337 2236.65 607.795C2237.91 610.25 2238.55 613.248 2238.55 616.789V619.244C2238.55 622.785 2237.91 625.783 2236.65 628.239C2235.39 630.694 2233.68 632.555 2231.51 633.813C2229.34 635.075 2226.84 635.707 2224.01 635.707L2223.54 635.707ZM2222.54 631.126H2223.14C2226.02 631.126 2228.42 630.154 2230.35 628.206C2232.27 626.259 2233.24 623.25 2233.24 619.177V616.789C2233.24 612.719 2232.27 609.718 2230.35 607.795C2228.42 605.869 2226.02 604.907 2223.14 604.907H2222.54C2220.73 604.907 2219.06 605.329 2217.53 606.169C2216.01 607.009 2214.8 608.313 2213.92 610.085C2213.03 611.854 2212.59 614.156 2212.59 616.986V619.044C2212.59 623.25 2213.56 626.313 2215.51 628.239C2217.46 630.164 2219.8 631.126 2222.54 631.126Z" fill="black"/>
<path d="M2247.18 594.02V587.98H2252.75V594.02H2247.18ZM2247.31 634.91V601.123H2252.62V634.91H2247.31Z" fill="black"/>
<path d="M2263.24 634.91V586.454H2268.55V634.91H2263.24Z" fill="black"/>
<path d="M2279.04 594.02V587.98H2284.62V594.02H2279.04ZM2279.17 634.91V601.123H2284.48V634.91H2279.17Z" fill="black"/>
<path d="M2308.58 635.175C2304.69 635.175 2301.92 634.27 2300.28 632.455C2298.65 630.64 2297.83 628.163 2297.83 625.019V605.504H2290.59V601.123H2297.83V590.9H2303.14V601.123H2314.82L2314.09 605.504H2303.14V624.687C2303.14 626.812 2303.62 628.349 2304.6 629.3C2305.57 630.253 2307.08 630.729 2309.11 630.729H2314.82V635.175H2308.58Z" fill="black"/>
<path d="M2322.12 648.185V643.74H2323.98C2326.06 643.74 2327.64 643.275 2328.73 642.346C2329.81 641.414 2330.84 639.623 2331.82 636.968L2332.55 634.978L2319.2 601.123H2324.85L2335.34 629.335L2345.36 601.123H2350.74L2337.06 637.168C2336 640.042 2334.91 642.289 2333.81 643.904C2332.7 645.52 2331.42 646.638 2329.96 647.256C2328.5 647.875 2326.68 648.185 2324.51 648.185H2322.12Z" fill="black"/>
<path d="M1859.21 699.078H1865.19L1876.47 737.378L1887.36 699.078H1892.67L1903.56 737.445L1914.91 699.078H1920.55L1906.02 745.543H1900.97L1889.95 706.975L1878.86 745.543H1873.82L1859.21 699.078Z" fill="black"/>
<path d="M1937.42 746.34C1932.77 746.34 1929.1 744.903 1926.39 742.023C1923.7 739.15 1922.35 735.101 1922.35 729.877V727.422C1922.35 724.013 1922.96 721.083 1924.21 718.625C1925.44 716.169 1927.2 714.279 1929.48 712.95C1931.76 711.624 1934.41 710.959 1937.42 710.959H1937.95C1940.91 710.959 1943.47 711.58 1945.62 712.818C1947.76 714.057 1949.43 715.816 1950.63 718.095C1951.82 720.375 1952.42 723.041 1952.42 726.093V730.142H1927.59C1927.63 734.083 1928.53 737.024 1930.28 738.971C1932.03 740.919 1934.41 741.891 1937.42 741.891H1938.41C1940.62 741.891 1942.43 741.494 1943.82 740.697C1945.22 739.9 1946.33 738.75 1947.18 737.245L1951.22 739.701C1950.07 741.737 1948.4 743.352 1946.21 744.546C1944.02 745.743 1941.42 746.34 1938.41 746.34H1937.42ZM1927.66 726.093H1947.18V725.364C1947.18 722.09 1946.35 719.611 1944.69 717.928C1943.03 716.248 1940.78 715.405 1937.95 715.405H1937.42C1934.67 715.405 1932.4 716.313 1930.61 718.128C1928.82 719.943 1927.83 722.598 1927.66 726.093Z" fill="black"/>
<path d="M1969.61 746.34C1965.98 746.34 1963.2 745.476 1961.25 743.75C1959.3 742.024 1958.33 739.547 1958.33 736.316C1958.33 733.661 1959.16 731.482 1960.82 729.777C1962.48 728.076 1964.92 727.001 1968.15 726.558L1981.43 724.767V724.5C1981.43 718.439 1978.73 715.405 1973.33 715.405H1972.6C1968.35 715.405 1965.45 717.045 1963.9 720.318L1959.65 718.26C1960.67 715.962 1962.3 714.168 1964.53 712.885C1966.77 711.602 1969.46 710.959 1972.6 710.959H1973.6C1977.89 710.959 1981.15 712.088 1983.39 714.344C1985.62 716.602 1986.74 719.878 1986.74 724.17V745.543H1981.9V739.504C1980.87 741.627 1979.33 743.299 1977.25 744.514C1975.17 745.732 1972.82 746.34 1970.21 746.34H1969.61ZM1981.43 728.816L1970.41 730.409C1967.84 730.763 1966.05 731.36 1965.03 732.2C1964.01 733.043 1963.5 734.326 1963.5 736.052C1963.5 737.953 1964.11 739.414 1965.33 740.433C1966.55 741.451 1968.31 741.959 1970.61 741.959H1971.27C1974.33 741.959 1976.78 740.986 1978.64 739.039C1980.5 737.092 1981.43 734.501 1981.43 731.271V728.816Z" fill="black"/>
<path d="M2009.91 745.808C2006.01 745.808 2003.25 744.903 2001.61 743.088C1999.97 741.273 1999.16 738.796 1999.16 735.652V716.137H1991.92V711.756H1999.16V701.533H2004.47V711.756H2016.15L2015.42 716.137H2004.47V735.32C2004.47 737.445 2004.95 738.982 2005.93 739.933C2006.9 740.887 2008.41 741.362 2010.44 741.362H2016.15V745.808H2009.91Z" fill="black"/>
<path d="M2024.78 745.543V697.087H2030.09V716.999C2031.06 715.186 2032.47 713.725 2034.31 712.618C2036.14 711.513 2038.36 710.959 2040.98 710.959H2041.58C2045.42 710.959 2048.51 712.131 2050.84 714.476C2053.16 716.823 2054.32 720.253 2054.32 724.767V745.543H2049.01V725.628C2049.01 722.309 2048.28 719.8 2046.82 718.095C2045.36 716.391 2043.26 715.54 2040.51 715.54H2040.05C2038.28 715.54 2036.64 715.97 2035.14 716.834C2033.63 717.696 2032.42 718.981 2031.49 720.683C2030.55 722.387 2030.09 724.524 2030.09 727.09V745.543H2024.78Z" fill="black"/>
<path d="M2077.69 746.34C2073.04 746.34 2069.37 744.903 2066.67 742.023C2063.97 739.15 2062.62 735.101 2062.62 729.877V727.422C2062.62 724.013 2063.24 721.083 2064.48 718.625C2065.72 716.169 2067.48 714.279 2069.76 712.95C2072.04 711.624 2074.68 710.959 2077.69 710.959H2078.22C2081.18 710.959 2083.74 711.58 2085.89 712.818C2088.04 714.057 2089.7 715.816 2090.9 718.095C2092.1 720.375 2092.69 723.041 2092.69 726.093V730.142H2067.86C2067.91 734.083 2068.8 737.024 2070.55 738.971C2072.3 740.919 2074.68 741.891 2077.69 741.891H2078.69C2080.9 741.891 2082.7 741.494 2084.1 740.697C2085.49 739.9 2086.61 738.75 2087.45 737.245L2091.5 739.701C2090.35 741.737 2088.68 743.352 2086.48 744.546C2084.3 745.743 2081.7 746.34 2078.69 746.34H2077.69ZM2067.93 726.093H2087.45V725.364C2087.45 722.09 2086.62 719.611 2084.96 717.928C2083.3 716.248 2081.05 715.405 2078.22 715.405H2077.69C2074.94 715.405 2072.68 716.313 2070.88 718.128C2069.09 719.943 2068.11 722.598 2067.93 726.093Z" fill="black"/>
<path d="M2101.12 745.543V711.756H2105.97V718.857C2106.77 716.645 2107.97 714.865 2109.59 713.515C2111.2 712.164 2113.56 711.491 2116.66 711.491H2119.78V716.337H2116.39C2113.51 716.337 2111.14 717.32 2109.26 719.289C2107.37 721.258 2106.43 724.281 2106.43 728.351V745.543H2101.12Z" fill="black"/>
<path d="M2145.6 745.543V699.078H2174.28V703.791H2151.11V720.583H2169.9L2169.24 725.296H2151.11V745.543H2145.6Z" fill="black"/>
<path d="M2193.93 746.34C2191.01 746.34 2188.39 745.686 2186.07 744.381C2183.74 743.077 2181.91 741.183 2180.56 738.707C2179.2 736.227 2178.53 733.261 2178.53 729.809V727.487C2178.53 724.035 2179.2 721.072 2180.56 718.592C2181.91 716.115 2183.74 714.222 2186.07 712.917C2188.39 711.613 2191.01 710.959 2193.93 710.959H2194.6C2197.56 710.959 2200.2 711.613 2202.53 712.917C2204.85 714.222 2206.69 716.105 2208.04 718.56C2209.39 721.015 2210.06 723.97 2210.06 727.422V729.877C2210.06 733.329 2209.39 736.284 2208.04 738.739C2206.69 741.194 2204.85 743.077 2202.53 744.381C2200.2 745.686 2197.56 746.34 2194.6 746.34H2193.93ZM2194 741.759H2194.53C2197.41 741.759 2199.83 740.765 2201.8 738.771C2203.77 736.781 2204.75 733.815 2204.75 729.877V727.422C2204.75 723.484 2203.77 720.518 2201.8 718.527C2199.83 716.534 2197.41 715.54 2194.53 715.54H2194C2191.17 715.54 2188.76 716.534 2186.8 718.527C2184.83 720.518 2183.84 723.484 2183.84 727.422V729.877C2183.84 733.815 2184.83 736.781 2186.8 738.771C2188.76 740.765 2191.17 741.759 2194 741.759Z" fill="black"/>
<path d="M2218.76 745.543V711.756H2223.61V718.857C2224.4 716.645 2225.61 714.865 2227.22 713.515C2228.84 712.164 2231.2 711.491 2234.3 711.491H2237.42V716.337H2234.03C2231.15 716.337 2228.77 717.32 2226.89 719.289C2225.01 721.258 2224.07 724.281 2224.07 728.351V745.543H2218.76Z" fill="black"/>
<path d="M2256.47 746.34C2251.82 746.34 2248.15 744.903 2245.45 742.023C2242.75 739.15 2241.4 735.101 2241.4 729.877V727.422C2241.4 724.013 2242.02 721.083 2243.26 718.625C2244.5 716.169 2246.26 714.279 2248.54 712.95C2250.81 711.624 2253.46 710.959 2256.47 710.959H2257C2259.96 710.959 2262.52 711.58 2264.67 712.818C2266.81 714.057 2268.48 715.816 2269.68 718.095C2270.87 720.375 2271.47 723.041 2271.47 726.093V730.142H2246.64C2246.69 734.083 2247.58 737.024 2249.33 738.971C2251.08 740.919 2253.46 741.891 2256.47 741.891H2257.46C2259.68 741.891 2261.48 741.494 2262.88 740.697C2264.27 739.9 2265.39 738.75 2266.23 737.245L2270.28 739.701C2269.13 741.737 2267.46 743.352 2265.26 744.546C2263.08 745.743 2260.47 746.34 2257.46 746.34H2256.47ZM2246.71 726.093H2266.23V725.364C2266.23 722.09 2265.4 719.611 2263.74 717.928C2262.08 716.248 2259.83 715.405 2257 715.405H2256.47C2253.72 715.405 2251.45 716.313 2249.66 718.128C2247.87 719.943 2246.89 722.598 2246.71 726.093Z" fill="black"/>
<path d="M2293.58 746.34C2288.84 746.34 2285.07 744.903 2282.26 742.023C2279.45 739.15 2278.04 735.101 2278.04 729.877V727.422C2278.04 723.97 2278.69 721.015 2280 718.56C2281.31 716.105 2283.13 714.222 2285.48 712.917C2287.82 711.613 2290.52 710.959 2293.58 710.959H2294.31C2297.27 710.959 2299.82 711.656 2301.94 713.05C2304.06 714.444 2305.62 716.291 2306.59 718.592L2302.34 720.583C2301.59 719.035 2300.55 717.806 2299.22 716.899C2297.89 715.994 2296.26 715.54 2294.31 715.54H2293.64C2290.63 715.54 2288.17 716.534 2286.24 718.527C2284.32 720.518 2283.35 723.484 2283.35 727.422V729.877C2283.35 733.861 2284.29 736.838 2286.18 738.807C2288.06 740.776 2290.55 741.759 2293.64 741.759H2294.31C2296.34 741.759 2298.04 741.327 2299.39 740.465C2300.74 739.601 2301.76 738.439 2302.47 736.981L2306.72 739.039C2305.75 741.205 2304.19 742.966 2302.04 744.314C2299.89 745.664 2297.32 746.34 2294.31 746.34H2293.58Z" fill="black"/>
<path d="M2323.78 746.34C2320.15 746.34 2317.37 745.476 2315.42 743.75C2313.47 742.024 2312.5 739.547 2312.5 736.316C2312.5 733.661 2313.33 731.482 2314.99 729.777C2316.65 728.076 2319.09 727.001 2322.32 726.558L2335.6 724.767V724.5C2335.6 718.439 2332.9 715.405 2327.5 715.405H2326.77C2322.52 715.405 2319.62 717.045 2318.07 720.318L2313.82 718.26C2314.84 715.962 2316.47 714.168 2318.71 712.885C2320.94 711.602 2323.63 710.959 2326.77 710.959H2327.77C2332.06 710.959 2335.32 712.088 2337.56 714.344C2339.79 716.602 2340.91 719.878 2340.91 724.17V745.543H2336.06V739.504C2335.05 741.627 2333.5 743.299 2331.42 744.514C2329.34 745.732 2326.99 746.34 2324.38 746.34H2323.78ZM2335.6 728.816L2324.58 730.409C2322.01 730.763 2320.22 731.36 2319.2 732.2C2318.18 733.043 2317.67 734.326 2317.67 736.052C2317.67 737.953 2318.28 739.414 2319.5 740.433C2320.72 741.451 2322.48 741.959 2324.78 741.959H2325.44C2328.5 741.959 2330.95 740.986 2332.81 739.039C2334.67 737.092 2335.6 734.501 2335.6 731.271V728.816Z" fill="black"/>
<path d="M2362.95 746.34C2355.56 746.34 2350.74 743.749 2348.48 738.574L2352.73 736.449C2353.61 738.307 2354.88 739.679 2356.55 740.565C2358.2 741.451 2360.36 741.891 2363.02 741.891H2363.75C2369.06 741.891 2371.71 740.19 2371.71 736.781V736.449C2371.71 733.486 2369.97 731.781 2366.47 731.338L2358.9 730.277C2355.94 729.877 2353.64 728.926 2352.03 727.422C2350.41 725.917 2349.61 723.881 2349.61 721.315V720.583C2349.61 717.709 2350.76 715.383 2353.06 713.614C2355.36 711.845 2358.39 710.959 2362.15 710.959H2363.02C2366.11 710.959 2368.82 711.589 2371.12 712.85C2373.42 714.111 2375.01 715.872 2375.9 718.128L2371.65 720.053C2370.23 716.955 2367.36 715.405 2363.02 715.405H2362.22C2359.92 715.405 2358.09 715.872 2356.75 716.801C2355.4 717.731 2354.72 718.97 2354.72 720.518V720.915C2354.72 722.287 2355.13 723.338 2355.95 724.07C2356.77 724.799 2358.1 725.296 2359.97 725.563L2367.6 726.625C2370.52 727.022 2372.79 728.04 2374.4 729.677C2376.02 731.317 2376.83 733.44 2376.83 736.051V736.781C2376.83 739.922 2375.72 742.302 2373.51 743.917C2371.29 745.532 2368.06 746.34 2363.81 746.34L2362.95 746.34Z" fill="black"/>
<path d="M2398.54 745.808C2394.64 745.808 2391.87 744.903 2390.24 743.088C2388.6 741.273 2387.78 738.796 2387.78 735.652V716.137H2380.54V711.756H2387.78V701.533H2393.09V711.756H2404.78L2404.05 716.137H2393.09V735.32C2393.09 737.445 2393.58 738.982 2394.55 739.933C2395.53 740.887 2397.03 741.362 2399.06 741.362H2404.78V745.808H2398.54Z" fill="black"/>
<path d="M592.981 413.644V367.179H611.502C616.194 367.179 620.143 368.086 623.355 369.899C626.561 371.714 628.995 374.258 630.654 377.534C632.315 380.808 633.145 384.66 633.145 389.084V391.671C633.145 398.489 631.286 403.853 627.569 407.769C623.852 411.686 618.495 413.644 611.502 413.644H592.981ZM602.674 405.279H611.237C615.175 405.279 618.195 404.185 620.3 401.995C622.401 399.804 623.452 396.43 623.452 391.871V388.884C623.452 384.503 622.401 381.183 620.3 378.928C618.195 376.67 615.175 375.541 611.237 375.541H602.674V405.279Z" fill="black"/>
<path d="M650.141 414.573C646.467 414.573 643.623 413.666 641.61 411.85C639.595 410.038 638.59 407.494 638.59 404.217C638.59 401.208 639.509 398.796 641.346 396.981C643.18 395.169 645.846 394.04 649.344 393.597L660.098 392.203V391.939C660.098 387.911 658.261 385.897 654.588 385.897H653.923C652.286 385.897 650.914 386.196 649.809 386.793C648.701 387.39 647.772 388.444 647.018 389.945L639.917 386.229C640.935 383.884 642.648 382.004 645.063 380.586C647.472 379.171 650.406 378.463 653.858 378.463H654.852C664.547 378.463 669.394 382.998 669.394 392.071V413.644H661.292V409.33C660.233 410.967 658.758 412.25 656.878 413.179C654.998 414.108 652.864 414.573 650.471 414.573L650.141 414.573ZM660.098 398.443L652.994 399.439C650.957 399.75 649.541 400.179 648.747 400.733C647.95 401.287 647.553 402.184 647.553 403.421C647.553 404.617 648.004 405.557 648.912 406.243C649.817 406.929 651.027 407.272 652.529 407.272H653.061C655.274 407.272 657 406.629 658.24 405.346C659.477 404.063 660.098 402.316 660.098 400.101V398.443Z" fill="black"/>
<path d="M693.092 414.041C688.357 414.041 685.004 413.025 683.035 410.989C681.066 408.955 680.083 405.922 680.083 401.894V387.158H672.911V379.392H680.083V369.634H689.375V379.392H699.932L698.803 387.158H689.375V401.562C689.375 403.202 689.786 404.385 690.602 405.114C691.423 405.843 692.538 406.208 693.957 406.208H699.932V414.041H693.092Z" fill="black"/>
<path d="M716.264 414.573C712.588 414.573 709.743 413.666 707.731 411.85C705.718 410.038 704.71 407.494 704.71 404.217C704.71 401.208 705.629 398.796 707.466 396.981C709.3 395.169 711.969 394.04 715.464 393.597L726.221 392.203V391.939C726.221 387.911 724.384 385.897 720.71 385.897H720.046C718.409 385.897 717.037 386.196 715.929 386.793C714.822 387.39 713.892 388.444 713.141 389.945L706.037 386.229C707.058 383.884 708.771 382.004 711.183 380.586C713.595 379.171 716.529 378.463 719.981 378.463H720.975C730.667 378.463 735.514 382.998 735.514 392.071V413.644H727.415V409.33C726.353 410.967 724.881 412.25 723.001 413.179C721.118 414.108 718.984 414.573 716.594 414.573L716.264 414.573ZM726.221 398.443L719.117 399.439C717.08 399.75 715.664 400.179 714.867 400.733C714.071 401.287 713.673 402.184 713.673 403.421C713.673 404.617 714.125 405.557 715.032 406.243C715.94 406.929 717.147 407.272 718.652 407.272H719.181C721.397 407.272 723.12 406.629 724.363 405.346C725.6 404.063 726.221 402.316 726.221 400.101L726.221 398.443Z" fill="black"/>
<path d="M515.708 524.277V477.812H532.04C537.305 477.812 541.386 478.995 544.287 481.364C547.183 483.73 548.637 487.082 548.637 491.419V493.013C548.637 497.351 547.162 500.713 544.22 503.101C541.278 505.492 537.215 506.685 532.04 506.685H521.218V524.277H515.708ZM521.218 501.972H531.972C535.514 501.972 538.255 501.243 540.203 499.782C542.151 498.323 543.126 496.111 543.126 493.145V491.352C543.126 488.389 542.151 486.174 540.203 484.715C538.255 483.254 535.514 482.525 531.972 482.525H521.218V501.972Z" fill="black"/>
<path d="M555.406 524.277V490.49H560.252V497.591C561.049 495.379 562.254 493.599 563.872 492.248C565.487 490.898 567.843 490.225 570.941 490.225H574.061V495.071H570.674C567.8 495.071 565.42 496.054 563.537 498.023C561.657 499.992 560.717 503.015 560.717 507.085V524.277H555.406Z" fill="black"/>
<path d="M593.446 525.074C590.523 525.074 587.903 524.42 585.58 523.116C583.257 521.811 581.42 519.918 580.069 517.441C578.718 514.961 578.043 511.996 578.043 508.544V506.221C578.043 502.769 578.718 499.806 580.069 497.326C581.42 494.85 583.257 492.956 585.58 491.652C587.903 490.347 590.523 489.693 593.446 489.693H594.111C597.077 489.693 599.718 490.347 602.042 491.652C604.367 492.956 606.202 494.839 607.552 497.294C608.903 499.749 609.578 502.704 609.578 506.156V508.611C609.578 512.063 608.903 515.018 607.552 517.473C606.202 519.928 604.367 521.811 602.042 523.116C599.718 524.42 597.077 525.074 594.111 525.074H593.446ZM593.511 520.493H594.046C596.92 520.493 599.343 519.499 601.312 517.506C603.281 515.515 604.267 512.549 604.267 508.611V506.156C604.267 502.218 603.281 499.252 601.312 497.262C599.343 495.268 596.92 494.274 594.046 494.274H593.511C590.68 494.274 588.278 495.268 586.309 497.262C584.34 499.252 583.354 502.218 583.354 506.156V508.611C583.354 512.549 584.34 515.515 586.309 517.506C588.278 519.499 590.68 520.493 593.511 520.493Z" fill="black"/>
<path d="M618.274 524.277V490.49H623.12V496.53C624.049 494.45 625.386 492.791 627.137 491.552C628.885 490.315 630.975 489.693 633.409 489.693H634.009C639.541 489.693 643.169 492.084 644.895 496.862C645.868 494.696 647.294 492.956 649.177 491.652C651.06 490.347 653.259 489.693 655.782 489.693H656.381C660.098 489.693 663.021 490.866 665.144 493.21C667.268 495.557 668.332 498.988 668.332 503.501V524.277H663.021V504.362C663.021 501.043 662.4 498.534 661.16 496.829C659.92 495.125 657.975 494.274 655.317 494.274H654.852C653.35 494.274 651.908 494.704 650.538 495.568C649.166 496.43 648.061 497.715 647.218 499.417C646.378 501.121 645.96 503.258 645.96 505.824V524.277H640.646V504.362C640.646 501.043 640.027 498.534 638.788 496.829C637.548 495.125 635.603 494.274 632.945 494.274H632.48C630.975 494.274 629.549 494.704 628.198 495.568C626.848 496.43 625.743 497.715 624.878 499.417C624.017 501.121 623.585 503.258 623.585 505.824V524.277H618.274Z" fill="black"/>
<path d="M678.489 537.552V490.49H683.335V496.265C684.351 494.274 685.823 492.681 687.749 491.484C689.672 490.29 692.006 489.693 694.751 489.693H695.215C698.049 489.693 700.55 490.323 702.72 491.584C704.886 492.845 706.604 494.704 707.863 497.162C709.127 499.617 709.757 502.615 709.757 506.156V508.611C709.757 512.152 709.127 515.15 707.863 517.605C706.604 520.061 704.886 521.922 702.72 523.18C700.55 524.442 698.049 525.074 695.215 525.074H694.751C692.23 525.074 690.029 524.542 688.149 523.48C686.266 522.419 684.815 520.982 683.8 519.167V537.552L678.489 537.552ZM693.757 520.493H694.354C697.231 520.493 699.632 519.52 701.558 517.573C703.481 515.626 704.446 512.617 704.446 508.544V506.156C704.446 502.086 703.481 499.085 701.558 497.162C699.632 495.236 697.231 494.274 694.354 494.274H693.757C691.941 494.274 690.272 494.696 688.743 495.536C687.219 496.376 686.009 497.68 685.126 499.452C684.24 501.221 683.8 503.522 683.8 506.353V508.411C683.8 512.617 684.772 515.68 686.72 517.605C688.667 519.531 691.012 520.493 693.757 520.493Z" fill="black"/>
<path d="M730.535 524.542C726.64 524.542 723.874 523.637 722.237 521.822C720.6 520.007 719.781 517.53 719.781 514.386V494.871H712.544V490.49H719.781V480.267H725.092V490.49H736.778L736.046 494.871H725.092V514.054C725.092 516.179 725.578 517.716 726.551 518.667C727.523 519.62 729.03 520.096 731.067 520.096H736.778V524.542H730.535Z" fill="black"/>
<path d="M471.492 588.445H477.468L488.754 626.745L499.64 588.445H504.951L515.84 626.812L527.194 588.445H532.834L518.295 634.91H513.249L502.231 596.342L491.142 634.91H486.098L471.492 588.445Z" fill="black"/>
<path d="M549.695 635.707C545.049 635.707 541.375 634.27 538.677 631.39C535.978 628.517 534.628 624.468 534.628 619.244V616.789C534.628 613.38 535.246 610.45 536.486 607.992C537.723 605.536 539.485 603.646 541.764 602.317C544.044 600.991 546.686 600.326 549.695 600.326H550.23C553.194 600.326 555.749 600.947 557.897 602.185C560.041 603.424 561.714 605.183 562.91 607.462C564.104 609.742 564.701 612.408 564.701 615.46V619.509H539.873C539.917 623.449 540.814 626.391 542.561 628.338C544.309 630.286 546.686 631.258 549.695 631.258H550.695C552.905 631.258 554.709 630.861 556.103 630.064C557.497 629.267 558.615 628.117 559.458 626.612L563.505 629.067C562.354 631.104 560.684 632.719 558.494 633.913C556.303 635.11 553.704 635.707 550.695 635.707L549.695 635.707ZM539.938 615.46H559.458V614.731C559.458 611.457 558.626 608.978 556.967 607.295C555.309 605.615 553.061 604.772 550.23 604.772H549.695C546.951 604.772 544.685 605.68 542.894 607.495C541.1 609.31 540.117 611.965 539.938 615.46Z" fill="black"/>
<path d="M589.394 635.707C586.649 635.707 584.316 635.11 582.392 633.913C580.466 632.719 578.994 631.104 577.978 629.068V634.91H573.132V586.454H578.443V606.301C579.459 604.486 580.909 603.038 582.792 601.952C584.672 600.869 586.874 600.326 589.394 600.326H589.859C592.692 600.326 595.194 600.955 597.363 602.217C599.529 603.478 601.247 605.337 602.506 607.794C603.77 610.25 604.4 613.248 604.4 616.789V619.244C604.4 622.785 603.77 625.783 602.506 628.238C601.247 630.693 599.529 632.554 597.363 633.813C595.194 635.074 592.692 635.707 589.859 635.707L589.394 635.707ZM588.4 631.126H588.997C591.874 631.126 594.275 630.153 596.201 628.206C598.125 626.258 599.089 623.25 599.089 619.176V616.789C599.089 612.718 598.125 609.718 596.201 607.794C594.275 605.869 591.874 604.907 588.997 604.907H588.4C586.585 604.907 584.915 605.328 583.386 606.168C581.863 607.008 580.653 608.313 579.769 610.085C578.883 611.854 578.443 614.155 578.443 616.986V619.044C578.443 623.25 579.415 626.312 581.363 628.238C583.311 630.164 585.655 631.126 588.4 631.126Z" fill="black"/>
<path d="M631.286 634.91V588.445H636.797V630.197H659.034V634.91H631.286Z" fill="black"/>
<path d="M679.883 635.707C676.96 635.707 674.34 635.053 672.016 633.748C669.691 632.444 667.854 630.55 666.506 628.074C665.155 625.594 664.48 622.628 664.48 619.176V616.854C664.48 613.402 665.155 610.439 666.506 607.959C667.854 605.482 669.691 603.589 672.016 602.284C674.34 600.98 676.96 600.326 679.883 600.326H680.547C683.511 600.326 686.155 600.98 688.478 602.284C690.801 603.589 692.638 605.472 693.989 607.927C695.34 610.382 696.015 613.337 696.015 616.789V619.244C696.015 622.696 695.34 625.651 693.989 628.106C692.638 630.561 690.801 632.444 688.478 633.748C686.155 635.053 683.511 635.707 680.547 635.707H679.883ZM679.948 631.126H680.48C683.357 631.126 685.777 630.132 687.749 628.138C689.715 626.148 690.704 623.182 690.704 619.244V616.789C690.704 612.851 689.715 609.885 687.749 607.894C685.777 605.901 683.357 604.907 680.48 604.907H679.948C677.117 604.907 674.712 605.901 672.746 607.894C670.774 609.885 669.791 612.851 669.791 616.789V619.244C669.791 623.182 670.774 626.148 672.746 628.138C674.712 630.132 677.117 631.126 679.948 631.126Z" fill="black"/>
<path d="M718.12 649.114C711.569 649.114 707.144 647.013 704.843 642.81L708.692 640.02C709.667 641.614 710.883 642.775 712.344 643.507C713.806 644.236 715.751 644.601 718.187 644.601H719.181C725.511 644.601 728.674 641.106 728.674 634.113V629.003C726.507 632.852 722.877 634.777 717.788 634.777H717.388C714.47 634.777 711.923 634.102 709.754 632.752C707.587 631.404 705.891 629.51 704.675 627.077C703.46 624.643 702.849 621.81 702.849 618.58V616.457C702.849 613.226 703.46 610.406 704.675 607.992C705.891 605.582 707.587 603.7 709.754 602.349C711.923 601.001 714.47 600.326 717.388 600.326H717.788C723.363 600.326 727.194 602.538 729.274 606.965V601.188H734.12V634.048C734.12 638.869 732.834 642.586 730.268 645.198C727.701 647.81 724.049 649.114 719.316 649.114L718.12 649.114ZM718.252 630.197H718.852C721.948 630.197 724.381 629.135 726.151 627.009C727.923 624.886 728.809 621.988 728.809 618.315V616.721C728.809 613.048 727.923 610.161 726.151 608.059C724.381 605.958 721.948 604.907 718.852 604.907H718.252C715.154 604.907 712.698 605.958 710.883 608.059C709.068 610.161 708.16 612.983 708.16 616.521V618.58C708.16 622.121 709.068 624.943 710.883 627.044C712.698 629.146 715.154 630.197 718.252 630.197Z" fill="black"/>
<path d="M169.102 745.543V703.791H154.163V699.077H189.551V703.791H174.612V745.543H169.102Z" fill="black"/>
<path d="M204.751 746.339C200.105 746.339 196.431 744.902 193.732 742.023C191.031 739.149 189.68 735.101 189.68 729.877V727.422C189.68 724.013 190.302 721.082 191.539 718.624C192.779 716.169 194.537 714.279 196.817 712.95C199.097 711.623 201.742 710.959 204.751 710.959H205.283C208.249 710.959 210.805 711.58 212.949 712.817C215.097 714.057 216.769 715.815 217.963 718.095C219.157 720.375 219.757 723.041 219.757 726.093V730.142H194.926C194.97 734.082 195.866 737.024 197.617 738.971C199.362 740.918 201.742 741.891 204.751 741.891H205.748C207.96 741.891 209.762 741.494 211.158 740.697C212.552 739.9 213.668 738.75 214.511 737.245L218.56 739.7C217.409 741.737 215.737 743.352 213.549 744.546C211.356 745.742 208.757 746.339 205.748 746.339H204.751ZM194.991 726.093H214.511V725.363C214.511 722.09 213.679 719.61 212.02 717.928C210.362 716.248 208.114 715.405 205.283 715.405H204.751C202.006 715.405 199.74 716.312 197.946 718.127C196.153 719.943 195.169 722.598 194.991 726.093Z" fill="black"/>
<path d="M228.185 745.543V711.756H233.031V717.795C233.96 715.716 235.3 714.057 237.048 712.818C238.796 711.58 240.886 710.959 243.323 710.959H243.917C249.45 710.959 253.08 713.35 254.806 718.128C255.779 715.961 257.208 714.222 259.088 712.917C260.968 711.613 263.172 710.959 265.695 710.959H266.29C270.009 710.959 272.929 712.131 275.053 714.476C277.179 716.823 278.24 720.253 278.24 724.767V745.543H272.929V725.628C272.929 722.309 272.308 719.8 271.071 718.095C269.834 716.391 267.883 715.54 265.231 715.54H264.766C263.259 715.54 261.822 715.97 260.449 716.834C259.077 717.695 257.97 718.981 257.129 720.683C256.289 722.387 255.868 724.524 255.868 727.09V745.543H250.557V725.628C250.557 722.309 249.936 719.8 248.699 718.095C247.459 716.391 245.511 715.54 242.858 715.54H242.394C240.886 715.54 239.46 715.97 238.109 716.834C236.759 717.695 235.654 718.981 234.792 720.683C233.928 722.387 233.496 724.524 233.496 727.09V745.543H228.185Z" fill="black"/>
<path d="M288.397 758.818V711.756H293.243V717.531C294.264 715.54 295.734 713.947 297.66 712.75C299.586 711.556 301.92 710.959 304.665 710.959H305.129C307.96 710.959 310.462 711.589 312.631 712.85C314.8 714.111 316.513 715.97 317.777 718.427C319.036 720.883 319.668 723.881 319.668 727.422V729.877C319.668 733.418 319.036 736.416 317.777 738.871C316.513 741.327 314.8 743.188 312.631 744.446C310.462 745.708 307.96 746.34 305.129 746.34H304.665C302.142 746.34 299.937 745.807 298.057 744.746C296.177 743.684 294.729 742.248 293.708 740.432V758.818H288.397ZM303.668 741.759H304.265C307.142 741.759 309.543 740.786 311.466 738.839C313.395 736.892 314.357 733.883 314.357 729.809V727.422C314.357 723.351 313.395 720.351 311.466 718.427C309.543 716.502 307.142 715.54 304.265 715.54H303.668C301.852 715.54 300.183 715.961 298.657 716.801C297.128 717.641 295.923 718.946 295.037 720.718C294.151 722.487 293.708 724.788 293.708 727.619V729.677C293.708 733.883 294.683 736.946 296.631 738.871C298.578 740.797 300.923 741.759 303.668 741.759Z" fill="black"/>
<path d="M341.64 746.339C336.994 746.339 333.32 744.902 330.621 742.023C327.923 739.149 326.572 735.101 326.572 729.877V727.422C326.572 724.013 327.191 721.082 328.431 718.624C329.668 716.169 331.429 714.279 333.709 712.95C335.989 711.623 338.631 710.959 341.64 710.959H342.175C345.138 710.959 347.694 711.58 349.841 712.817C351.986 714.057 353.658 715.815 354.855 718.095C356.049 720.375 356.646 723.041 356.646 726.093V730.142H331.818C331.861 734.082 332.758 737.024 334.506 738.971C336.254 740.918 338.631 741.891 341.64 741.891H342.64C344.849 741.891 346.654 741.494 348.048 740.697C349.442 739.9 350.56 738.75 351.403 737.245L355.449 739.7C354.298 741.737 352.629 743.352 350.438 744.546C348.248 745.742 345.649 746.339 342.64 746.339H341.64ZM331.883 726.093H351.403V725.363C351.403 722.09 350.571 719.61 348.912 717.928C347.253 716.248 345.006 715.405 342.175 715.405H341.64C338.896 715.405 336.629 716.312 334.838 718.127C333.045 719.943 332.061 722.598 331.883 726.093Z" fill="black"/>
<path d="M365.077 745.543V711.756H369.923V718.857C370.717 716.645 371.922 714.865 373.54 713.514C375.155 712.164 377.514 711.491 380.609 711.491H383.732V716.337H380.345C377.468 716.337 375.088 717.32 373.208 719.289C371.328 721.258 370.388 724.28 370.388 728.351V745.543H365.077Z" fill="black"/>
<path d="M398.335 746.34C394.705 746.34 391.917 745.475 389.972 743.749C388.022 742.023 387.049 739.547 387.049 736.316C387.049 733.661 387.881 731.481 389.54 729.777C391.198 728.075 393.646 727 396.877 726.557L410.151 724.767V724.499C410.151 718.438 407.452 715.405 402.052 715.405H401.323C397.074 715.405 394.175 717.045 392.625 720.318L388.378 718.26C389.394 715.961 391.02 714.168 393.257 712.885C395.491 711.602 398.179 710.959 401.323 710.959H402.317C406.612 710.959 409.875 712.088 412.112 714.344C414.346 716.602 415.462 719.878 415.462 724.17V745.543H410.616V739.503C409.6 741.626 408.049 743.298 405.969 744.514C403.889 745.732 401.545 746.34 398.935 746.34H398.335ZM410.151 728.816L399.132 730.409C396.563 730.763 394.772 731.36 393.754 732.2C392.738 733.043 392.228 734.326 392.228 736.052C392.228 737.953 392.835 739.414 394.054 740.432C395.272 741.451 397.028 741.959 399.332 741.959H399.994C403.049 741.959 405.505 740.986 407.363 739.039C409.222 737.091 410.151 734.501 410.151 731.271V728.816Z" fill="black"/>
<path d="M438.634 745.807C434.738 745.807 431.972 744.903 430.335 743.088C428.698 741.273 427.877 738.796 427.877 735.652V716.137H420.643V711.756H427.877V701.533H433.188V711.756H444.874L444.144 716.137H433.188V735.32C433.188 737.445 433.674 738.982 434.649 739.933C435.622 740.886 437.126 741.362 439.163 741.362H444.874V745.807H438.634Z" fill="black"/>
<path d="M464.191 746.339C460.474 746.339 457.486 745.167 455.23 742.82C452.972 740.476 451.843 737.045 451.843 732.532V711.756H457.154V731.735C457.154 735.011 457.851 737.499 459.245 739.203C460.639 740.908 462.643 741.759 465.252 741.759H465.785C467.511 741.759 469.094 741.326 470.531 740.465C471.968 739.6 473.119 738.317 473.983 736.616C474.847 734.912 475.28 732.775 475.28 730.209V711.756H480.59V745.543H475.744V739.568C474.815 741.605 473.443 743.241 471.627 744.481C469.812 745.718 467.532 746.339 464.788 746.339H464.191Z" fill="black"/>
<path d="M491.212 745.543V711.756H496.058V718.857C496.852 716.645 498.057 714.865 499.675 713.514C501.291 712.164 503.649 711.491 506.745 711.491H509.867V716.337H506.48C503.603 716.337 501.223 717.32 499.343 719.289C497.463 721.258 496.523 724.28 496.523 728.351V745.543H491.212Z" fill="black"/>
<path d="M528.917 746.339C524.271 746.339 520.597 744.902 517.896 742.023C515.197 739.149 513.849 735.101 513.849 729.877V727.422C513.849 724.013 514.465 721.082 515.708 718.624C516.945 716.169 518.706 714.279 520.986 712.95C523.263 711.623 525.908 710.959 528.917 710.959H529.449C532.412 710.959 534.968 711.58 537.118 712.817C539.263 714.057 540.932 715.815 542.129 718.095C543.323 720.375 543.92 723.041 543.92 726.093V730.142H519.092C519.135 734.082 520.032 737.024 521.78 738.971C523.53 740.918 525.908 741.891 528.917 741.891H529.914C532.126 741.891 533.931 741.494 535.324 740.697C536.718 739.9 537.837 738.75 538.677 737.245L542.726 739.7C541.575 741.737 539.906 743.352 537.712 744.546C535.524 745.742 532.923 746.339 529.914 746.339H528.917ZM519.16 726.093H538.677V725.363C538.677 722.09 537.847 719.61 536.189 717.928C534.528 716.248 532.28 715.405 529.449 715.405H528.917C526.172 715.405 523.903 716.312 522.112 718.127C520.321 719.943 519.335 722.598 519.16 726.093Z" fill="black"/>
<path d="M550.96 754.902L548.966 752.314L550.825 750.853C551.667 750.232 552.24 749.681 552.553 749.194C552.861 748.706 553.018 747.887 553.018 746.737V745.543H550.095V738.839H556.335V746.737C556.335 747.976 556.214 748.984 555.971 749.759C555.728 750.531 555.33 751.207 554.774 751.782C554.223 752.357 553.458 753.022 552.486 753.773L550.96 754.902Z" fill="black"/>
<path d="M580.102 699.077H586.077L597.363 737.378L608.249 699.077H613.56L624.449 737.445L635.803 699.077H641.443L626.904 745.543H621.858L610.84 706.975L599.751 745.543H594.708L580.102 699.077Z" fill="black"/>
<path d="M648.947 704.652V698.613H654.523V704.652H648.947ZM649.077 745.543V711.756H654.388V745.543H649.077Z" fill="black"/>
<path d="M665.009 745.543V711.756H669.855V717.795C670.785 715.762 672.203 714.111 674.107 712.85C676.009 711.589 678.375 710.959 681.209 710.959H681.806C685.658 710.959 688.743 712.131 691.066 714.476C693.392 716.823 694.553 720.253 694.553 724.767V745.543H689.243V725.628C689.243 722.309 688.511 719.8 687.052 718.095C685.591 716.391 683.489 715.54 680.744 715.54H680.28C678.51 715.54 676.871 715.97 675.366 716.834C673.864 717.695 672.646 718.981 671.717 720.683C670.785 722.387 670.32 724.524 670.32 727.09V745.543H665.009Z" fill="black"/>
<path d="M717.39 746.34C714.603 746.34 712.115 745.708 709.921 744.446C707.733 743.188 706.004 741.318 704.746 738.839C703.481 736.359 702.852 733.35 702.852 729.809V727.422C702.852 723.881 703.481 720.883 704.746 718.427C706.004 715.97 707.733 714.111 709.921 712.85C712.115 711.589 714.603 710.959 717.39 710.959H717.787C720.354 710.959 722.569 711.502 724.427 712.585C726.286 713.671 727.747 715.119 728.809 716.934V697.087H734.12V745.543H729.273V739.701C728.255 741.694 726.783 743.298 724.86 744.514C722.933 745.732 720.575 746.34 717.787 746.34L717.39 746.34ZM718.252 741.759H718.852C720.71 741.759 722.391 741.34 723.898 740.497C725.4 739.657 726.594 738.353 727.48 736.581C728.366 734.812 728.809 732.51 728.809 729.677V727.619C728.809 724.788 728.355 722.487 727.447 720.718C726.54 718.946 725.335 717.641 723.83 716.801C722.326 715.961 720.667 715.54 718.852 715.54H718.252C715.378 715.54 712.976 716.502 711.05 718.427C709.127 720.351 708.163 723.351 708.163 727.422V729.809C708.163 733.883 709.127 736.891 711.05 738.839C712.976 740.786 715.378 741.759 718.252 741.759Z" fill="black"/>
</svg>
